<svg xmlns="http://www.w3.org/2000/svg" width="512" height="368" viewBox="0 0 512 368"><g transform="translate(0 -72)"><path d="M472,72H40A40.047,40.047,0,0,0,0,112V400a40.047,40.047,0,0,0,40,40H472a40.047,40.047,0,0,0,40-40V112A40.047,40.047,0,0,0,472,72Z" fill="#5d647f"/><path d="M176,232H80a16,16,0,0,1-16-16V152a16,16,0,0,1,16-16h96a16,16,0,0,1,16,16v64A16,16,0,0,1,176,232Z" fill="#ffd100"/><path d="M120,336H80a16,16,0,0,1-16-16v-8a16,16,0,0,1,16-16h40a16,16,0,0,1,16,16v8A16,16,0,0,1,120,336Zm104,0H184a16,16,0,0,1-16-16v-8a16,16,0,0,1,16-16h40a16,16,0,0,1,16,16v8A16,16,0,0,1,224,336Zm104,0H288a16,16,0,0,1-16-16v-8a16,16,0,0,1,16-16h40a16,16,0,0,1,16,16v8A16,16,0,0,1,328,336Zm104,0H392a16,16,0,0,1-16-16v-8a16,16,0,0,1,16-16h40a16,16,0,0,1,16,16v8A16,16,0,0,1,432,336Z" fill="#b8bac0"/><path d="M232,384H72a8,8,0,0,1,0-16H232a8,8,0,0,1,0,16Zm104,0H264a8,8,0,0,1,0-16h72a8,8,0,0,1,0,16Z" fill="#8a8895"/><path d="M192,192H112V176h80V160H112V136H96v96h16V208h80Z" fill="#ff9500"/><circle cx="48" cy="48" r="48" transform="translate(352 136)" fill="#ff4f19"/></g></svg>