<svg xmlns="http://www.w3.org/2000/svg" xmlns:xlink="http://www.w3.org/1999/xlink" width="638.009" height="315.13" viewBox="0 0 638.009 315.13"><defs><radialGradient id="a" cx="0.5" cy="0.5" r="0.5" gradientTransform="translate(0)" gradientUnits="objectBoundingBox"><stop offset="0.28" stop-color="#960001" stop-opacity="0"/><stop offset="0.4" stop-color="#960001" stop-opacity="0.02"/><stop offset="0.52" stop-color="#960001" stop-opacity="0.102"/><stop offset="0.64" stop-color="#960001" stop-opacity="0.231"/><stop offset="0.75" stop-color="#960001" stop-opacity="0.4"/><stop offset="0.86" stop-color="#960001" stop-opacity="0.631"/><stop offset="0.97" stop-color="#960001" stop-opacity="0.91"/><stop offset="1" stop-color="#960001"/></radialGradient><linearGradient id="b" x1="108.862" y1="-81.275" x2="109.236" y2="-79.63" gradientUnits="objectBoundingBox"><stop offset="0.06" stop-color="#fd130f"/><stop offset="0.1" stop-color="#fd0d0b"/><stop offset="0.2" stop-color="#fd0706"/><stop offset="0.51" stop-color="#740001"/><stop offset="0.96" stop-color="#460405"/></linearGradient><linearGradient id="c" x1="184.081" y1="-126.965" x2="184.857" y2="-125.419" gradientUnits="objectBoundingBox"><stop offset="0.17" stop-color="#fd0706"/><stop offset="0.72" stop-color="#740001"/><stop offset="1" stop-color="#7f0001"/></linearGradient><linearGradient id="d" x1="89.993" y1="-53.79" x2="89.697" y2="-53.053" gradientUnits="objectBoundingBox"><stop offset="0.05" stop-color="#fcc1c9"/><stop offset="0.3" stop-color="#fd1b1a"/><stop offset="0.53" stop-color="#fd1b1a"/><stop offset="0.8" stop-color="#fd130f"/><stop offset="1" stop-color="#fd130f"/></linearGradient><linearGradient id="e" x1="93.172" y1="-57.469" x2="92.424" y2="-58.872" gradientUnits="objectBoundingBox"><stop offset="0.09" stop-color="#460405"/><stop offset="0.57" stop-color="#7f0001"/><stop offset="0.65" stop-color="#6b0102"/><stop offset="0.74" stop-color="#580303"/><stop offset="0.81" stop-color="#520303"/></linearGradient><linearGradient id="f" x1="105.083" y1="-78.813" x2="106.018" y2="-76.802" gradientUnits="objectBoundingBox"><stop offset="0.44" stop-color="#fcc1c9"/><stop offset="1" stop-color="#cb5c5e"/></linearGradient><radialGradient id="g" cx="0.204" cy="0.267" r="0.623" gradientTransform="matrix(0.732, 0.305, -0.244, 0.992, 7.114, -16.306)" gradientUnits="objectBoundingBox"><stop offset="0.04" stop-color="#fa8e95"/><stop offset="0.23" stop-color="#fa4951"/><stop offset="0.48" stop-color="#fd0706"/><stop offset="0.83" stop-color="#ba0203"/><stop offset="1" stop-color="#960001"/></radialGradient><linearGradient id="h" x1="94.643" y1="-107.33" x2="94.553" y2="-106.612" gradientUnits="objectBoundingBox"><stop offset="0" stop-color="#bc0001"/><stop offset="0.21" stop-color="#f00001"/><stop offset="0.35" stop-color="#d81404"/><stop offset="0.67" stop-color="#690001"/></linearGradient><linearGradient id="i" x1="173.572" y1="-105.574" x2="172.517" y2="-105.45" gradientUnits="objectBoundingBox"><stop offset="0" stop-color="#fd0706"/><stop offset="0.11" stop-color="#e90505"/><stop offset="0.34" stop-color="#c20203"/><stop offset="0.53" stop-color="#aa0101"/><stop offset="0.65" stop-color="#a10001"/></linearGradient><linearGradient id="j" x1="135.218" y1="-114.484" x2="135.682" y2="-113.635" gradientUnits="objectBoundingBox"><stop offset="0.02" stop-color="#520303"/><stop offset="0.29" stop-color="#690001"/><stop offset="0.94" stop-color="#7f0001"/></linearGradient><radialGradient id="k" cx="0.784" cy="5.195" r="3.056" gradientTransform="matrix(0.137, 0.096, -0.001, 0.061, 103.951, -367.213)" gradientUnits="objectBoundingBox"><stop offset="0.01" stop-color="#fba7b2"/><stop offset="0.32" stop-color="#fa8e95"/><stop offset="0.52" stop-color="#fb6062"/><stop offset="0.77" stop-color="#fc2926"/><stop offset="0.89" stop-color="#fd130f"/></radialGradient><radialGradient id="l" cx="0.404" cy="0.188" r="1.035" gradientTransform="matrix(0.342, -0.32, 0.116, 0.946, 49.344, 16.092)" gradientUnits="objectBoundingBox"><stop offset="0.28" stop-color="#fa4951"/><stop offset="0.72" stop-color="#fd130f"/><stop offset="0.94" stop-color="#fd0706"/></radialGradient><linearGradient id="m" x1="164.314" y1="-238.013" x2="164.299" y2="-237.919" gradientUnits="objectBoundingBox"><stop offset="0" stop-color="#fa8e95"/><stop offset="1" stop-color="#fd0706"/></linearGradient><linearGradient id="n" x1="62.761" y1="-83.998" x2="63.636" y2="-83.998" gradientUnits="objectBoundingBox"><stop offset="0" stop-color="#fff"/><stop offset="0.03" stop-color="#fef3f3"/><stop offset="0.14" stop-color="#fdd4d6"/><stop offset="0.25" stop-color="#fcbabe"/><stop offset="0.37" stop-color="#fba6ac"/><stop offset="0.51" stop-color="#fa999f"/><stop offset="0.69" stop-color="#fa9097"/><stop offset="1" stop-color="#fa8e95"/></linearGradient></defs><g transform="translate(-0.001 -0.04)"><path d="M535.2,533.3a58.921,58.921,0,0,1-29.11-7.78C491.36,517.35,481.55,504.38,477,487c-4.86-18.38-3.15-35.1,5.07-49.69s21.56-24.58,39.67-29.35a57.78,57.78,0,0,1,14.66-2.09,35.541,35.541,0,0,1,11.6,1.81c8,2.76,13.09,8.37,15.28,16.68l2.87,10.85-3.65,1-.77-.59c-4.09-3.18-9.64-5-16.48-5.49-1.1-.07-2.21-.11-3.33-.11a53.912,53.912,0,0,0-13.74,1.81c-10,2.62-17.33,8.07-21.9,16.21-4.81,8.24-5.83,17.79-3,28.4,3.37,12.77,9.29,21.78,17.58,26.78a30.78,30.78,0,0,0,16.62,4.67,44.67,44.67,0,0,0,11.29-1.57c12.77-3.36,21.71-9.53,26.59-18.35l.39-.72,3.54-.94,2.78,10.53c2.12,8.05-.3,15.49-7.18,22.13-5.71,5.53-13.41,9.59-22.87,12.08A65.734,65.734,0,0,1,535.2,533.3Z" transform="translate(-181 -342.43)" fill="#fdb201"/><path d="M536.36,407.79a33.28,33.28,0,0,1,11,1.73q11,3.81,14,15.33l2.38,9-.86.22q-6.61-5.15-17.54-5.89c-1.15-.07-2.3-.11-3.46-.11a55.589,55.589,0,0,0-14.24,1.87q-15.81,4.15-23.09,17.14-7.64,13.06-3.21,29.84,5.28,20,18.45,27.95a32.46,32.46,0,0,0,17.61,4.95,46.211,46.211,0,0,0,11.79-1.63q20-5.28,27.8-19.28l.85-.23,2.28,8.65q2.9,11-6.65,20.24-8.26,8-22,11.6a64.081,64.081,0,0,1-16.3,2.19A56.83,56.83,0,0,1,507,523.83q-21.5-11.93-28.2-37.35-7.11-27,4.89-48.24,12-21.45,38.47-28.44a56.112,56.112,0,0,1,14.16-2m0-3.89h0a59.8,59.8,0,0,0-15.15,2.15c-18.65,4.91-32.4,15.1-40.87,30.3-8.47,15-10.25,32.22-5.26,51.12,4.73,17.94,14.85,31.31,30.08,39.75a60.76,60.76,0,0,0,30,8,67.771,67.771,0,0,0,17.29-2.33c9.78-2.57,17.77-6.8,23.73-12.56,7.43-7.16,10-15.25,7.7-24l-2.27-8.64-1-3.76-3.76,1-.85.22-1.6.43-.8,1.44c-4.61,8.33-13.15,14.19-25.39,17.41a42.577,42.577,0,0,1-10.8,1.51,28.38,28.38,0,0,1-15.54-4.36c-7.91-4.77-13.53-13.38-16.77-25.65-2.7-10.24-1.78-19,2.81-26.89,4.4-7.83,11.17-12.83,20.73-15.34a51.929,51.929,0,0,1,13.25-1.75,31.5,31.5,0,0,1,3.22.11c6.43.44,11.62,2.15,15.4,5.08l1.52,1.18,1.86-.49.85-.23,3.75-1-1-3.75-2.37-9c-2.37-9-7.93-15-16.52-18a37.271,37.271,0,0,0-12.29-2Z" transform="translate(-181 -342.43)" fill="#c80001"/><path d="M562.93,434.06q-6.61-5.15-17.54-5.89a55.21,55.21,0,0,0-17.7,1.76q-15.81,4.15-23.09,17.14-7.64,13.06-3.21,29.84,5.28,20,18.45,27.95,12.42,7.8,29.4,3.32,20-5.28,27.8-19.28l.85-.23,2.28,8.65q2.9,11-6.65,20.24-8.26,8-22,11.6-23.78,6.26-44.46-5.33-21.5-11.93-28.2-37.35-7.11-27,4.89-48.24,12-21.45,38.47-28.44,14.77-3.89,25.17-.28,11,3.81,14,15.33l2.38,9Z" transform="translate(-181 -342.43)" fill="#f5fa16"/><path d="M452.08,529.27a128.66,128.66,0,1,1,0-.01Z" transform="translate(-181 -342.43)" fill="#960001"/><path d="M452.08,529.27a128.66,128.66,0,1,1,0-.01Z" transform="translate(-181 -342.43)" fill="url(#a)"/><path d="M213.3,608.15a3.33,3.33,0,0,0-.12-4.3,3.4,3.4,0,1,0-4.66,4.87,3.35,3.35,0,0,0,4.78-.57Z" transform="translate(-181 -342.43)" fill="#960001"/><path d="M207.28,597.28a3.33,3.33,0,0,0-.12-4.3,3.4,3.4,0,1,0,.12,4.3Z" transform="translate(-181 -342.43)" fill="#960001"/><path d="M202.18,586.14a3.33,3.33,0,0,0-.12-4.3,3.289,3.289,0,0,0-.52-.46,3.49,3.49,0,0,0-4.78.57,3.45,3.45,0,0,0,.63,4.76,3.37,3.37,0,0,0,4.79-.57Z" transform="translate(-181 -342.43)" fill="#f00001"/><path d="M198.07,574.59a3.31,3.31,0,0,0-.12-4.3,2.9,2.9,0,0,0-.52-.46,3.39,3.39,0,1,0,.64,4.76Z" transform="translate(-181 -342.43)" fill="#f00001"/><path d="M194.57,562.81a3.33,3.33,0,0,0-.12-4.3,3.39,3.39,0,0,0-.52-.47,3.5,3.5,0,0,0-4.78.58,3.46,3.46,0,0,0,.64,4.76,3.35,3.35,0,0,0,4.78-.57Z" transform="translate(-181 -342.43)" fill="#f00001"/><path d="M192.38,550.59a3.33,3.33,0,0,0-.64-4.77,3.49,3.49,0,0,0-4.77.57,3.44,3.44,0,0,0,.62,4.76,3.36,3.36,0,0,0,4.79-.56Z" transform="translate(-181 -342.43)" fill="#960001"/><path d="M190.89,538.4a3.33,3.33,0,0,0-.12-4.3,2.9,2.9,0,0,0-.52-.46A3.389,3.389,0,1,0,186.1,539a3.35,3.35,0,0,0,4.79-.6Z" transform="translate(-181 -342.43)" fill="#960001"/><path d="M190.46,526a3.33,3.33,0,0,0-.12-4.3,3.871,3.871,0,0,0-.52-.47,3.5,3.5,0,0,0-4.78.57,3.45,3.45,0,0,0,.63,4.76,3.36,3.36,0,0,0,4.79-.56Z" transform="translate(-181 -342.43)" fill="#960001"/><path d="M192.61,594.59a3.33,3.33,0,0,0-.64-4.77,3.5,3.5,0,0,0-4.78.57,3.44,3.44,0,0,0,.63,4.76,3.36,3.36,0,0,0,4.79-.56Z" transform="translate(-181 -342.43)" fill="#960001"/><path d="M188.5,583a3.33,3.33,0,0,0-.12-4.3,3.393,3.393,0,0,0-.52-.47,3.49,3.49,0,0,0-4.77.57,3.44,3.44,0,0,0,.62,4.76,3.36,3.36,0,0,0,4.79-.56Z" transform="translate(-181 -342.43)" fill="#960001"/><path d="M458.83,488.83a3.34,3.34,0,0,0-3.37-2.68,4.252,4.252,0,0,0-.69.1,3.49,3.49,0,0,0-2.64,4,3.44,3.44,0,0,0,4,2.59,3.36,3.36,0,0,0,2.7-4.01Z" transform="translate(-181 -342.43)" fill="#f00001"/><path d="M460.89,500.83a3.33,3.33,0,0,0-3.37-2.67,2.86,2.86,0,0,0-.7.09,3.49,3.49,0,0,0-2.63,4,3.44,3.44,0,0,0,4,2.59,3.37,3.37,0,0,0,2.7-4.01Z" transform="translate(-181 -342.43)" fill="#960001"/><path d="M462.32,513.12a3.34,3.34,0,0,0-3.37-2.68,3.4,3.4,0,1,0,3.37,2.68Z" transform="translate(-181 -342.43)" fill="#f00001"/><path d="M463,525.37a3.31,3.31,0,0,0-3.36-2.67,2.668,2.668,0,0,0-.69.09,3.5,3.5,0,0,0-2.65,4,3.46,3.46,0,0,0,4.05,2.58,3.35,3.35,0,0,0,2.65-4Z" transform="translate(-181 -342.43)" fill="#960001"/><path d="M458.47,562a3.34,3.34,0,0,0-3.37-2.68,4.085,4.085,0,0,0-.69.09,3.389,3.389,0,1,0,4.06,2.59Z" transform="translate(-181 -342.43)" fill="#960001"/><path d="M455.12,573.85a3.35,3.35,0,0,0-3.38-2.68,3.4,3.4,0,1,0,3.38,2.68Z" transform="translate(-181 -342.43)" fill="#960001"/><path d="M450.93,585.55a3.34,3.34,0,0,0-3.37-2.68,3.377,3.377,0,0,0-.69.1,3.365,3.365,0,1,0,1.36,6.59,3.36,3.36,0,0,0,2.7-4.01Z" transform="translate(-181 -342.43)" fill="#960001"/><path d="M445.83,596.65a3.35,3.35,0,0,0-3.37-2.68,3.281,3.281,0,0,0-.69.1,3.365,3.365,0,1,0,1.36,6.59,3.37,3.37,0,0,0,2.7-4.01Z" transform="translate(-181 -342.43)" fill="#960001"/><path d="M439.72,607.28a3.35,3.35,0,0,0-3.38-2.68,3.53,3.53,0,0,0-3.32,4.12,3.44,3.44,0,0,0,4,2.59,3.37,3.37,0,0,0,2.7-4.03Z" transform="translate(-181 -342.43)" fill="#f00001"/><path d="M433,617.63a3.34,3.34,0,0,0-3.37-2.68,4.1,4.1,0,0,0-.69.1,3.49,3.49,0,0,0-2.64,4,3.45,3.45,0,0,0,4,2.59,3.37,3.37,0,0,0,2.7-4.01Z" transform="translate(-181 -342.43)" fill="#960001"/><path d="M443,621.83a3.34,3.34,0,0,0-3.37-2.68,4.251,4.251,0,0,0-.69.1,3.384,3.384,0,1,0,4.06,2.58Z" transform="translate(-181 -342.43)" fill="#960001"/><path d="M449.81,611.28a3.34,3.34,0,0,0-3.37-2.68,3.4,3.4,0,1,0,3.37,2.68Z" transform="translate(-181 -342.43)" fill="#f00001"/><path d="M456.1,599.68a3.32,3.32,0,0,0-3.36-2.68,3.277,3.277,0,0,0-.69.1,3.387,3.387,0,1,0,4.05,2.58Z" transform="translate(-181 -342.43)" fill="#960001"/><path d="M460.93,588.55a3.32,3.32,0,0,0-3.37-2.68,3.27,3.27,0,0,0-.69.09,3.49,3.49,0,0,0-2.63,4,3.43,3.43,0,0,0,4,2.58,3.35,3.35,0,0,0,2.69-3.99Z" transform="translate(-181 -342.43)" fill="#f00001"/><path d="M466,577.08a3.33,3.33,0,0,0-3.37-2.67,3.437,3.437,0,0,0-.69.09,3.5,3.5,0,0,0-2.64,4,3.46,3.46,0,0,0,4.05,2.58,3.35,3.35,0,0,0,2.65-4Z" transform="translate(-181 -342.43)" fill="#f00001"/><path d="M481.43,595.09a3.35,3.35,0,0,0-4.06-2.59,3.391,3.391,0,1,0,4.06,2.59Z" transform="translate(-181 -342.43)" fill="#960001"/><path d="M486.08,583.65a3.33,3.33,0,0,0-3.37-2.68,3.286,3.286,0,0,0-.69.1,3.47,3.47,0,0,0-2.64,4,3.43,3.43,0,0,0,4,2.58,3.36,3.36,0,0,0,2.7-4Z" transform="translate(-181 -342.43)" fill="#960001"/><path d="M468.63,565.34a3.32,3.32,0,0,0-3.37-2.67,4.2,4.2,0,0,0-.69.09,3.5,3.5,0,0,0-2.64,4,3.46,3.46,0,0,0,4.05,2.58,3.35,3.35,0,0,0,2.65-4Z" transform="translate(-181 -342.43)" fill="#960001"/><path d="M470.86,553.35a3.32,3.32,0,0,0-3.37-2.68,4.356,4.356,0,0,0-.69.09,3.395,3.395,0,1,0,4.06,2.59Z" transform="translate(-181 -342.43)" fill="#960001"/><path d="M473.08,541.49a3.33,3.33,0,0,0-3.37-2.68,4.222,4.222,0,0,0-.69.09,3.391,3.391,0,1,0,4.06,2.59Z" transform="translate(-181 -342.43)" fill="#960001"/><path d="M473.91,529.32a3.32,3.32,0,0,0-3.36-2.67,3.262,3.262,0,0,0-.69.09,3.385,3.385,0,1,0,4.05,2.58Z" transform="translate(-181 -342.43)" fill="#960001"/><path d="M484.61,533a3.29,3.29,0,0,0-4.05-2.58,3.371,3.371,0,1,0,4.05,2.58Z" transform="translate(-181 -342.43)" fill="#f00001"/><path d="M483.23,545a3.32,3.32,0,0,0-3.36-2.67,2.737,2.737,0,0,0-.7.09,3.49,3.49,0,0,0-2.64,4,3.45,3.45,0,0,0,4.05,2.59,3.36,3.36,0,0,0,2.65-4.01Z" transform="translate(-181 -342.43)" fill="#960001"/><path d="M493.86,548.63a3.33,3.33,0,0,0-3.37-2.68,4.355,4.355,0,0,0-.69.09,3.49,3.49,0,0,0-2.63,4,3.45,3.45,0,0,0,4,2.59,3.36,3.36,0,0,0,2.69-4Z" transform="translate(-181 -342.43)" fill="#960001"/><path d="M491.52,559.76a3.32,3.32,0,0,0-3.37-2.67,3.354,3.354,0,0,0-.69.09,3.5,3.5,0,0,0-2.64,4,3.44,3.44,0,0,0,4,2.59,3.36,3.36,0,0,0,2.7-4.01Z" transform="translate(-181 -342.43)" fill="#960001"/><path d="M488.79,571.78a3.33,3.33,0,0,0-3.37-2.68,3.259,3.259,0,0,0-.69.09,3.48,3.48,0,0,0-2.63,4,3.43,3.43,0,0,0,4,2.59,3.34,3.34,0,0,0,2.69-4Z" transform="translate(-181 -342.43)" fill="#960001"/><path d="M473.2,515.22a3.33,3.33,0,0,0-3.37-2.68,3.4,3.4,0,1,0,3.37,2.68Z" transform="translate(-181 -342.43)" fill="#f00001"/><path d="M472,502.82a3.32,3.32,0,0,0-3.36-2.67,3.258,3.258,0,0,0-.69.09,3.49,3.49,0,0,0-2.64,4,3.44,3.44,0,0,0,4.05,2.58,3.35,3.35,0,0,0,2.64-4Z" transform="translate(-181 -342.43)" fill="#960001"/><path d="M470.09,490.49a3.29,3.29,0,0,0-4-2.58,3.388,3.388,0,1,0,4,2.58Z" transform="translate(-181 -342.43)" fill="#960001"/><path d="M249.47,506a3.168,3.168,0,1,0-3.93,2.17A3.25,3.25,0,0,0,249.47,506Z" transform="translate(-181 -342.43)" fill="#f00001"/><path d="M398.3,497.34a3.241,3.241,0,1,0-4.32-1.53,3.241,3.241,0,0,0,4.32,1.53Z" transform="translate(-181 -342.43)" fill="#f00001"/><path d="M203.45,492.25a3.211,3.211,0,1,0,6.14,1.88,3.26,3.26,0,0,0-2.07-4,3.2,3.2,0,0,0-4.07,2.12Z" transform="translate(-181 -342.43)" fill="#fe7e07"/><path d="M231.19,495.15a3.21,3.21,0,1,0-4,1.89,3.21,3.21,0,0,0,4-1.89Z" transform="translate(-181 -342.43)" fill="#f00001"/><path d="M267.88,517.92a3.26,3.26,0,0,0-2.44-3.72,3.16,3.16,0,1,0-1.25,6.19,3.25,3.25,0,0,0,3.69-2.47Z" transform="translate(-181 -342.43)" fill="#f00001"/><path d="M245.93,529a3.21,3.21,0,1,0-3.14,3.23,3.21,3.21,0,0,0,3.14-3.23Z" transform="translate(-181 -342.43)" fill="#f00001"/><path d="M225.86,517.43a3.25,3.25,0,0,0-2.78-3.53,3.168,3.168,0,1,0-.74,6.29A3.26,3.26,0,0,0,225.86,517.43Z" transform="translate(-181 -342.43)" fill="#f00001"/><path d="M246.84,517.36a3.24,3.24,0,1,0-2.461,2.658,3.24,3.24,0,0,0,2.461-2.658Z" transform="translate(-181 -342.43)" fill="#f00001"/><path d="M214.72,528.84a3.2,3.2,0,0,0-3.11-3.26,3.25,3.25,0,1,0,0,6.49,3.2,3.2,0,0,0,3.11-3.23Z" transform="translate(-181 -342.43)" fill="#f00001"/><path d="M224.71,462.51a3.21,3.21,0,1,0-4.41.91,3.21,3.21,0,0,0,4.41-.91Z" transform="translate(-181 -342.43)" fill="#fe7e07"/><path d="M244.86,449.42a3.25,3.25,0,1,0,.017,4.492,3.25,3.25,0,0,0-.017-4.492Z" transform="translate(-181 -342.43)" fill="#fe7e07"/><path d="M231.74,453.12a3.21,3.21,0,1,0-4.47.47,3.21,3.21,0,0,0,4.47-.47Z" transform="translate(-181 -342.43)" fill="#fe7e07"/><path d="M440.35,491.06a3.19,3.19,0,1,0,2.484.208,3.22,3.22,0,0,0-2.484-.208Z" transform="translate(-181 -342.43)" fill="#f00001"/><path d="M272,481.18a3.3,3.3,0,1,0,.121,4.409A3.29,3.29,0,0,0,272,481.18Z" transform="translate(-181 -342.43)" fill="#f00001"/><path d="M259.63,485.16a3.263,3.263,0,1,0-4.41.89,3.26,3.26,0,0,0,4.41-.89Z" transform="translate(-181 -342.43)" fill="#f00001"/><path d="M429.28,490.77a3.25,3.25,0,1,0,3.889,2.148A3.25,3.25,0,0,0,429.28,490.77Z" transform="translate(-181 -342.43)" fill="#f00001"/><path d="M241.58,474.74a3.24,3.24,0,0,0-.88-4.38,3.17,3.17,0,1,0-3.52,5.26,3.23,3.23,0,0,0,4.4-.88Z" transform="translate(-181 -342.43)" fill="#f00001"/><path d="M266.84,471.58a3.24,3.24,0,1,0,.067,4.484A3.24,3.24,0,0,0,266.84,471.58Z" transform="translate(-181 -342.43)" fill="#f00001"/><path d="M314.18,609.75a3.24,3.24,0,1,0,3.48-2.98,3.239,3.239,0,0,0-3.48,2.98Z" transform="translate(-181 -342.43)" fill="#f00001"/><path d="M285.53,612.35a3.191,3.191,0,1,0,4.18-1.7A3.191,3.191,0,0,0,285.53,612.35Z" transform="translate(-181 -342.43)" fill="#f00001"/><path d="M326.62,620.67a3.2,3.2,0,1,0-.912,2.318A3.2,3.2,0,0,0,326.62,620.67Z" transform="translate(-181 -342.43)" fill="#fe7e07"/><path d="M304.71,611.35a3.15,3.15,0,0,0,3.89-2.46,3.232,3.232,0,1,0-6.3-1.45,3.14,3.14,0,0,0,2.41,3.91Z" transform="translate(-181 -342.43)" fill="#f00001"/><path d="M417,585.87a3.21,3.21,0,1,0,4.37-1.14,3.21,3.21,0,0,0-4.37,1.14Z" transform="translate(-181 -342.43)" fill="#fe7e07"/><path d="M229.07,589.53a3.23,3.23,0,1,0-2.473.387,3.25,3.25,0,0,0,2.473-.387Z" transform="translate(-181 -342.43)" fill="#fe7e07"/><path d="M320.51,641.46a3.22,3.22,0,1,0-1.059,2.276A3.25,3.25,0,0,0,320.51,641.46Z" transform="translate(-181 -342.43)" fill="#fe7e07"/><path d="M273.44,641.14a3.22,3.22,0,1,0,4.19-1.66,3.22,3.22,0,0,0-4.19,1.66Z" transform="translate(-181 -342.43)" fill="#fe7e07"/><path d="M286.76,649.6a3.207,3.207,0,1,0-2.11-4.06,3.17,3.17,0,0,0,2.11,4.06Z" transform="translate(-181 -342.43)" fill="#f00001"/><path d="M269.79,615.65a3.164,3.164,0,1,0,4.33-1.13,3.17,3.17,0,0,0-4.33,1.13Z" transform="translate(-181 -342.43)" fill="#f00001"/><path d="M296.69,616.65A3.195,3.195,0,1,0,300.6,614.4,3.2,3.2,0,0,0,296.69,616.65Z" transform="translate(-181 -342.43)" fill="#f00001"/><path d="M326.14,631.08a3.16,3.16,0,1,0,3-3.3,3.16,3.16,0,0,0-3,3.3Z" transform="translate(-181 -342.43)" fill="#fe7e07"/><path d="M314.31,630.68a3.16,3.16,0,1,0,3.34-2.95A3.16,3.16,0,0,0,314.31,630.68Z" transform="translate(-181 -342.43)" fill="#fe7e07"/><path d="M204,555.87a3.2,3.2,0,1,0-2.45-.456A3.21,3.21,0,0,0,204,555.87Z" transform="translate(-181 -342.43)" fill="#f00001"/><path d="M243.14,553.79a3.21,3.21,0,1,0,.243-2.491,3.21,3.21,0,0,0-.243,2.491Z" transform="translate(-181 -342.43)" fill="#f00001"/><path d="M260.29,552.1a3.216,3.216,0,1,0-1.82,4.19A3.28,3.28,0,0,0,260.29,552.1Z" transform="translate(-181 -342.43)" fill="#f00001"/><path d="M215.32,540.64a3.21,3.21,0,1,0-2.79,3.55,3.25,3.25,0,0,0,2.79-3.55Z" transform="translate(-181 -342.43)" fill="#f00001"/><path d="M422.59,575.46a3.3,3.3,0,0,0,1.48,4.28,3.251,3.251,0,1,0-1.48-4.28Z" transform="translate(-181 -342.43)" fill="#fe7e07"/><path d="M249.27,561.21a3.24,3.24,0,1,0,4.175,1.592,3.24,3.24,0,0,0-4.175-1.592Z" transform="translate(-181 -342.43)" fill="#f00001"/><path d="M434,575.43a3.23,3.23,0,0,0,1.66,4.18A3.212,3.212,0,1,0,434,575.43Z" transform="translate(-181 -342.43)" fill="#fe7e07"/><path d="M405.2,563.37a3.275,3.275,0,1,0,4.14-1.73A3.23,3.23,0,0,0,405.2,563.37Z" transform="translate(-181 -342.43)" fill="#bc0001"/><path d="M312.61,441.74a3.27,3.27,0,0,0,2.77-3.54,3.215,3.215,0,1,0-6.38.8,3.29,3.29,0,0,0,3.61,2.74Z" transform="translate(-181 -342.43)" fill="#f00001"/><path d="M291.94,432.51a3.161,3.161,0,1,0,2.13-3.93,3.161,3.161,0,0,0-2.13,3.93Z" transform="translate(-181 -342.43)" fill="#fe7e07"/><path d="M280.91,436.86a3.17,3.17,0,1,0,.312-3.223A3.17,3.17,0,0,0,280.91,436.86Z" transform="translate(-181 -342.43)" fill="#f00001"/><path d="M314.91,417.38a3.25,3.25,0,1,0,3.08-3.44,3.21,3.21,0,0,0-3.08,3.44Z" transform="translate(-181 -342.43)" fill="#f00001"/><path d="M345.59,419.14a3.25,3.25,0,1,0-3.719,2.579,3.22,3.22,0,0,0,3.719-2.579Z" transform="translate(-181 -342.43)" fill="#fe7e07"/><path d="M330.49,414a3.23,3.23,0,1,0,2.258,1.086A3.21,3.21,0,0,0,330.49,414Z" transform="translate(-181 -342.43)" fill="#fe7e07"/><path d="M291.05,421.85a3.25,3.25,0,0,0,6.27-1.69,3.247,3.247,0,1,0-6.27,1.69Z" transform="translate(-181 -342.43)" fill="#fe7e07"/><path d="M274.33,417a3.22,3.22,0,1,0,.328-3.3,3.22,3.22,0,0,0-.328,3.3Z" transform="translate(-181 -342.43)" fill="#fe7e07"/><path d="M342.86,447.19a3.16,3.16,0,0,0-3.89,2.46,3.24,3.24,0,0,0,6.31,1.46,3.16,3.16,0,0,0-2.42-3.92Z" transform="translate(-181 -342.43)" fill="#f00001"/><path d="M362.05,446.2a3.2,3.2,0,1,0-4.141,1.583,3.2,3.2,0,0,0,4.141-1.583Z" transform="translate(-181 -342.43)" fill="#f00001"/><path d="M365.79,432.94a3.17,3.17,0,1,0,1.658,4.139A3.16,3.16,0,0,0,365.79,432.94Z" transform="translate(-181 -342.43)" fill="#f00001"/><path d="M377.77,442.89a3.16,3.16,0,1,0-4.325,1.125A3.16,3.16,0,0,0,377.77,442.89Z" transform="translate(-181 -342.43)" fill="#f00001"/><path d="M286.18,445.9a3.2,3.2,0,1,0,1.74-4.18A3.2,3.2,0,0,0,286.18,445.9Z" transform="translate(-181 -342.43)" fill="#f00001"/><path d="M302.91,450.94a3.243,3.243,0,1,0,2.46-3.87A3.243,3.243,0,0,0,302.91,450.94Z" transform="translate(-181 -342.43)" fill="#f00001"/><path d="M308.56,460.28a3.3,3.3,0,0,0,6.49-1.11,3.16,3.16,0,0,0-3.1-2.75,4.234,4.234,0,0,0-.7.06,3.19,3.19,0,0,0-2.69,3.8Z" transform="translate(-181 -342.43)" fill="#f00001"/><path d="M320.77,458.68a3.3,3.3,0,0,0,6.59,0,3.19,3.19,0,0,0-2.59-3.23,5,5,0,0,0-.69-.08,3.24,3.24,0,0,0-3.31,3.31Z" transform="translate(-181 -342.43)" fill="#f00001"/><path d="M213.58,483.11a3.281,3.281,0,1,0-4.15,1.75,3.24,3.24,0,0,0,4.15-1.75Z" transform="translate(-181 -342.43)" fill="#f00001"/><path d="M292.28,481.71a3.26,3.26,0,0,0,.91-4.35,3.16,3.16,0,1,0-5.27,3.49,3.23,3.23,0,0,0,4.36.86Z" transform="translate(-181 -342.43)" fill="#f00001"/><path d="M218.64,472.54a3.22,3.22,0,1,0-3.181,1.67,3.25,3.25,0,0,0,3.181-1.67Z" transform="translate(-181 -342.43)" fill="#960001"/><path d="M285.57,412.7a3.21,3.21,0,1,0,1-3.431,3.24,3.24,0,0,0-1,3.431Z" transform="translate(-181 -342.43)" fill="#f00001"/><path d="M309.05,407.51a3.22,3.22,0,1,0,.741-2.372,3.21,3.21,0,0,0-.741,2.372Z" transform="translate(-181 -342.43)" fill="#f00001"/><path d="M321.06,406.66a3.22,3.22,0,1,0,1.553-2.938A3.22,3.22,0,0,0,321.06,406.66Z" transform="translate(-181 -342.43)" fill="#f00001"/><path d="M336.62,404a3.23,3.23,0,0,0-3.53,2.94,3.213,3.213,0,1,0,3.53-2.94Z" transform="translate(-181 -342.43)" fill="#fe7e07"/><path d="M342.44,425.88a3.1,3.1,0,0,0-3.69,2.63,3.164,3.164,0,1,0,6.23,1.11,3.11,3.11,0,0,0-2.54-3.74Z" transform="translate(-181 -342.43)" fill="#fe7e07"/><path d="M338.86,470.92a3.16,3.16,0,1,0-3.686,2.332A3.16,3.16,0,0,0,338.86,470.92Z" transform="translate(-181 -342.43)" fill="#f00001"/><path d="M378.28,427.45a3.21,3.21,0,0,0-4.4,1.34,3.25,3.25,0,0,0,5.72,3.08,3.19,3.19,0,0,0-1.32-4.42Z" transform="translate(-181 -342.43)" fill="#fe7e07"/><path d="M383.57,418.48a3.21,3.21,0,1,0,1.558,1.934,3.21,3.21,0,0,0-1.558-1.934Z" transform="translate(-181 -342.43)" fill="#fe7e07"/><path d="M395,429.39a3.22,3.22,0,1,0-4.42.81,3.22,3.22,0,0,0,4.42-.81Z" transform="translate(-181 -342.43)" fill="#fe7e07"/><path d="M381.71,454.4a3.16,3.16,0,0,0-4.53.63,3.211,3.211,0,1,0,4.53-.63Z" transform="translate(-181 -342.43)" fill="#f00001"/><path d="M413.15,440.61a3.23,3.23,0,1,0,.912,2.3A3.23,3.23,0,0,0,413.15,440.61Z" transform="translate(-181 -342.43)" fill="#f00001"/><path d="M376.58,463.61a3.17,3.17,0,0,0-4.57.51,3.24,3.24,0,0,0,5,4.07,3.16,3.16,0,0,0-.43-4.58Z" transform="translate(-181 -342.43)" fill="#f00001"/><path d="M371.44,447.48a3.12,3.12,0,0,0-4.4,1.2,3.2,3.2,0,0,0,5.52,3.22,3.12,3.12,0,0,0-1.12-4.42Z" transform="translate(-181 -342.43)" fill="#f00001"/><path d="M275.5,468.22a3.3,3.3,0,0,0,.58-4.48,3.24,3.24,0,1,0-5.07,4,3.3,3.3,0,0,0,4.49.48Z" transform="translate(-181 -342.43)" fill="#f00001"/><path d="M270.35,459.05a3.26,3.26,0,0,0,.63-4.44,3.2,3.2,0,1,0-5.1,3.85A3.26,3.26,0,0,0,270.35,459.05Z" transform="translate(-181 -342.43)" fill="#960001"/><path d="M298.06,474.77a3.16,3.16,0,1,0,.3-3.265,3.153,3.153,0,0,0-.3,3.265Z" transform="translate(-181 -342.43)" fill="#f00001"/><path d="M262.94,438.75a3.21,3.21,0,1,0-4.45-.79A3.21,3.21,0,0,0,262.94,438.75Z" transform="translate(-181 -342.43)" fill="#f00001"/><path d="M260.78,449.25a3.19,3.19,0,1,0-.655-2.384,3.16,3.16,0,0,0,.655,2.384Z" transform="translate(-181 -342.43)" fill="#f00001"/><path d="M409,552.46a3.24,3.24,0,0,0,2.21,3.91,3.193,3.193,0,0,0,1.65-6.17,3.23,3.23,0,0,0-3.86,2.26Z" transform="translate(-181 -342.43)" fill="#f00001"/><path d="M265.05,553.33a3.12,3.12,0,1,0,.019-2.487A3.14,3.14,0,0,0,265.05,553.33Z" transform="translate(-181 -342.43)" fill="#f00001"/><path d="M419.68,552.41a3.29,3.29,0,0,0,2.35,3.82,3.17,3.17,0,1,0,1.5-6.16A3.28,3.28,0,0,0,419.68,552.41Z" transform="translate(-181 -342.43)" fill="#f00001"/><path d="M440.87,553.05a3.22,3.22,0,1,0,2.555-2.525A3.24,3.24,0,0,0,440.87,553.05Z" transform="translate(-181 -342.43)" fill="#f00001"/><path d="M436.46,554.54a3.17,3.17,0,0,0-2.46-3.88,3.3,3.3,0,0,0-3.8,2.48,3.26,3.26,0,0,0,2.39,3.86,3.18,3.18,0,0,0,3.87-2.46Z" transform="translate(-181 -342.43)" fill="#f00001"/><path d="M422.44,529.66a3.21,3.21,0,1,0,3.14-3.15,3.21,3.21,0,0,0-3.14,3.15Z" transform="translate(-181 -342.43)" fill="#f00001"/><path d="M432.85,529.7A3.19,3.19,0,0,0,436,533a3.25,3.25,0,1,0,0-6.49,3.2,3.2,0,0,0-3.15,3.19Z" transform="translate(-181 -342.43)" fill="#f00001"/><path d="M401.64,529.58a3.21,3.21,0,1,0,3.14-3.23A3.21,3.21,0,0,0,401.64,529.58Z" transform="translate(-181 -342.43)" fill="#f00001"/><path d="M443.25,529.74a3.17,3.17,0,1,0,3.12-3.2A3.19,3.19,0,0,0,443.25,529.74Z" transform="translate(-181 -342.43)" fill="#f00001"/><path d="M415.83,605.42a3.21,3.21,0,1,0,4.47-.47,3.21,3.21,0,0,0-4.47.47Z" transform="translate(-181 -342.43)" fill="#f00001"/><path d="M249.92,529a3.22,3.22,0,0,0,3.28,3.3,3.29,3.29,0,1,0,0-6.58,3.22,3.22,0,0,0-3.28,3.28Z" transform="translate(-181 -342.43)" fill="#f00001"/><path d="M277.7,529.09a3.22,3.22,0,1,0-3.15,3.23A3.22,3.22,0,0,0,277.7,529.09Z" transform="translate(-181 -342.43)" fill="#f00001"/><path d="M288.65,529.13a3.13,3.13,0,1,0-.906,2.223A3.15,3.15,0,0,0,288.65,529.13Z" transform="translate(-181 -342.43)" fill="#f00001"/><path d="M310.56,529.22a3.18,3.18,0,0,0-3.12-3.23,3.22,3.22,0,1,0,0,6.43A3.18,3.18,0,0,0,310.56,529.22Z" transform="translate(-181 -342.43)" fill="#bc0001"/><path d="M299.6,529.18a3.14,3.14,0,1,0-.9,2.233,3.16,3.16,0,0,0,.9-2.233Z" transform="translate(-181 -342.43)" fill="#f00001"/><path d="M321.51,529.26A3.2,3.2,0,0,0,318.4,526a3.25,3.25,0,0,0,0,6.5A3.2,3.2,0,0,0,321.51,529.26Z" transform="translate(-181 -342.43)" fill="#bc0001" opacity="0.4"/><path d="M343.43,529.35a3.22,3.22,0,0,0-3.12-3.17,3.16,3.16,0,1,0,0,6.32,3.25,3.25,0,0,0,3.12-3.15Z" transform="translate(-181 -342.43)" fill="#bc0001" opacity="0.4"/><path d="M326.05,529.28a3.24,3.24,0,0,0,3.28,3.31,3.3,3.3,0,0,0,0-6.59,3.24,3.24,0,0,0-3.28,3.28Z" transform="translate(-181 -342.43)" fill="#bc0001" opacity="0.4"/><path d="M354.38,529.39a3.21,3.21,0,1,0-3.14,3.23,3.21,3.21,0,0,0,3.14-3.23Z" transform="translate(-181 -342.43)" fill="#bc0001" opacity="0.4"/><path d="M365.34,529.43a3.21,3.21,0,1,0-3.15,3.19A3.21,3.21,0,0,0,365.34,529.43Z" transform="translate(-181 -342.43)" fill="#bc0001"/><path d="M376.29,529.48a3.21,3.21,0,1,0-3.14,3.23A3.21,3.21,0,0,0,376.29,529.48Z" transform="translate(-181 -342.43)" fill="#f00001"/><path d="M279.67,540.88a3.21,3.21,0,1,0-3.14,3.22,3.21,3.21,0,0,0,3.14-3.22Z" transform="translate(-181 -342.43)" fill="#f00001"/><path d="M291.49,540.92a3.145,3.145,0,1,0-3.12,3.16A3.15,3.15,0,0,0,291.49,540.92Z" transform="translate(-181 -342.43)" fill="#f00001"/><path d="M303.31,541a3.261,3.261,0,1,0-3.12,3.17A3.17,3.17,0,0,0,303.31,541Z" transform="translate(-181 -342.43)" fill="#f00001"/><path d="M350.59,541.16a3.21,3.21,0,1,0-3.14,3.22A3.21,3.21,0,0,0,350.59,541.16Z" transform="translate(-181 -342.43)" fill="#f00001"/><path d="M374.23,541.25a3.21,3.21,0,1,0-3.14,3.22A3.21,3.21,0,0,0,374.23,541.25Z" transform="translate(-181 -342.43)" fill="#f00001"/><path d="M283.59,552.21a3.21,3.21,0,1,0-3.14,3.22,3.21,3.21,0,0,0,3.14-3.22Z" transform="translate(-181 -342.43)" fill="#f00001"/><path d="M296,552.26a3.13,3.13,0,0,0-3.11-3.18,3.166,3.166,0,1,0,3.11,3.18Z" transform="translate(-181 -342.43)" fill="#f00001"/><path d="M308.34,552.3a3.155,3.155,0,1,0-3.12,3.18A3.17,3.17,0,0,0,308.34,552.3Z" transform="translate(-181 -342.43)" fill="#f00001"/><path d="M289.26,562.64a3.21,3.21,0,1,0-3.14,3.23,3.21,3.21,0,0,0,3.14-3.23Z" transform="translate(-181 -342.43)" fill="#f00001"/><path d="M301.8,562.69a3.145,3.145,0,1,0-3.12,3.16A3.16,3.16,0,0,0,301.8,562.69Z" transform="translate(-181 -342.43)" fill="#f00001"/><path d="M314.33,562.74a3.155,3.155,0,1,0-3.12,3.18,3.17,3.17,0,0,0,3.12-3.18Z" transform="translate(-181 -342.43)" fill="#f00001"/><path d="M298.39,571.8a3.254,3.254,0,1,0-3.12,3.15,3.16,3.16,0,0,0,3.12-3.15Z" transform="translate(-181 -342.43)" fill="#f00001"/><path d="M312.61,571.86a3.155,3.155,0,1,0-3.12,3.17,3.18,3.18,0,0,0,3.12-3.17Z" transform="translate(-181 -342.43)" fill="#f00001"/><path d="M319.68,580.11a3.15,3.15,0,1,0-3.11,3.18,3.16,3.16,0,0,0,3.11-3.18Z" transform="translate(-181 -342.43)" fill="#f00001"/><path d="M298.73,485.74a3.14,3.14,0,1,1-.905-2.246,3.15,3.15,0,0,1,.905,2.246Z" transform="translate(-181 -342.43)" fill="#f00001"/><path d="M313,485.79a3.165,3.165,0,1,1-3.14-3.2,3.17,3.17,0,0,1,3.14,3.2Z" transform="translate(-181 -342.43)" fill="#f00001"/><path d="M320.09,477.59a3.16,3.16,0,1,1-.908-2.247,3.17,3.17,0,0,1,.908,2.247Z" transform="translate(-181 -342.43)" fill="#f00001"/><path d="M370.22,552.55a3.21,3.21,0,1,0-3.14,3.22,3.21,3.21,0,0,0,3.14-3.22Z" transform="translate(-181 -342.43)" fill="#f00001"/><path d="M279.76,516.87a3.21,3.21,0,1,1-3.11-3.25A3.21,3.21,0,0,1,279.76,516.87Z" transform="translate(-181 -342.43)" fill="#f00001"/><path d="M291.58,516.92a3.14,3.14,0,1,1-.905-2.246,3.15,3.15,0,0,1,.905,2.246Z" transform="translate(-181 -342.43)" fill="#f00001"/><path d="M315.22,517a3.18,3.18,0,1,1-3.14-3.23A3.19,3.19,0,0,1,315.22,517Z" transform="translate(-181 -342.43)" fill="#bc0001"/><path d="M303.4,517a3.16,3.16,0,1,1-.9-2.253,3.16,3.16,0,0,1,.9,2.253Z" transform="translate(-181 -342.43)" fill="#f00001"/><path d="M338.86,517.1a3.22,3.22,0,0,1-3.13,3.15,3.16,3.16,0,1,1,0-6.32,3.24,3.24,0,0,1,3.13,3.17Z" transform="translate(-181 -342.43)" fill="#bc0001" opacity="0.4"/><path d="M320.62,517a3.24,3.24,0,0,1,3.31-3.28,3.3,3.3,0,0,1,0,6.59,3.24,3.24,0,0,1-3.31-3.31Z" transform="translate(-181 -342.43)" fill="#bc0001" opacity="0.4"/><path d="M350.68,517.15a3.21,3.21,0,1,1-3.11-3.25A3.21,3.21,0,0,1,350.68,517.15Z" transform="translate(-181 -342.43)" fill="#bc0001" opacity="0.4"/><path d="M362.5,517.2a3.21,3.21,0,1,1-3.11-3.21,3.21,3.21,0,0,1,3.11,3.21Z" transform="translate(-181 -342.43)" fill="#bc0001"/><path d="M374.32,517.25a3.21,3.21,0,1,1-3.11-3.26A3.21,3.21,0,0,1,374.32,517.25Z" transform="translate(-181 -342.43)" fill="#f00001"/><path d="M283.77,505.57a3.21,3.21,0,1,1-3.11-3.25,3.21,3.21,0,0,1,3.11,3.25Z" transform="translate(-181 -342.43)" fill="#f00001"/><path d="M296.15,505.62a3.15,3.15,0,1,1-.908-2.243,3.15,3.15,0,0,1,.908,2.243Z" transform="translate(-181 -342.43)" fill="#f00001"/><path d="M320.9,505.72a3.291,3.291,0,1,1-3.15-3.23A3.19,3.19,0,0,1,320.9,505.72Z" transform="translate(-181 -342.43)" fill="#bc0001" opacity="0.4"/><path d="M308.52,505.67a3.16,3.16,0,1,1-.9-2.253A3.17,3.17,0,0,1,308.52,505.67Z" transform="translate(-181 -342.43)" fill="#f00001"/><path d="M345.65,505.82a3.22,3.22,0,0,1-3.14,3.14,3.16,3.16,0,1,1,0-6.31A3.22,3.22,0,0,1,345.65,505.82Z" transform="translate(-181 -342.43)" fill="#bc0001" opacity="0.4"/><path d="M326.86,505.74a3.23,3.23,0,0,1,3.3-3.28,3.3,3.3,0,0,1,0,6.59,3.22,3.22,0,0,1-3.3-3.31Z" transform="translate(-181 -342.43)" fill="#bc0001" opacity="0.4"/><path d="M358,505.86a3.22,3.22,0,1,1-3.12-3.21A3.22,3.22,0,0,1,358,505.86Z" transform="translate(-181 -342.43)" fill="#bc0001" opacity="0.4"/><path d="M289.53,495.18a3.21,3.21,0,1,1-3.11-3.25A3.21,3.21,0,0,1,289.53,495.18Z" transform="translate(-181 -342.43)" fill="#f00001"/><path d="M302.06,495.23a3.13,3.13,0,0,1-3.14,3.15,3.176,3.176,0,1,1,3.14-3.15Z" transform="translate(-181 -342.43)" fill="#f00001"/><path d="M327.13,495.33a3.18,3.18,0,0,1-3.14,3.2,3.216,3.216,0,1,1,3.14-3.2Z" transform="translate(-181 -342.43)" fill="#bc0001" opacity="0.4"/><path d="M314.6,495.28a3.17,3.17,0,1,1-.911-2.254A3.17,3.17,0,0,1,314.6,495.28Z" transform="translate(-181 -342.43)" fill="#f00001"/><path d="M352.2,495.43a3.23,3.23,0,0,1-3.14,3.14,3.16,3.16,0,1,1,0-6.32,3.25,3.25,0,0,1,3.14,3.18Z" transform="translate(-181 -342.43)" fill="#bc0001" opacity="0.4"/><path d="M333.24,495.35a3.24,3.24,0,0,1,3.31-3.28,3.3,3.3,0,0,1,0,6.59,3.23,3.23,0,0,1-3.31-3.31Z" transform="translate(-181 -342.43)" fill="#bc0001" opacity="0.4"/><path d="M364.73,495.48a3.21,3.21,0,1,1-3.12-3.21,3.21,3.21,0,0,1,3.12,3.21Z" transform="translate(-181 -342.43)" fill="#bc0001"/><path d="M370.4,505.91a3.21,3.21,0,1,1-3.11-3.25,3.21,3.21,0,0,1,3.11,3.25Z" transform="translate(-181 -342.43)" fill="#f00001"/><path d="M416.38,563.39a3.21,3.21,0,1,0,4-1.88,3.21,3.21,0,0,0-4,1.88Z" transform="translate(-181 -342.43)" fill="#f00001"/><path d="M380.73,587a3.24,3.24,0,1,0-.068-4.484A3.24,3.24,0,0,0,380.73,587Z" transform="translate(-181 -342.43)" fill="#f00001"/><path d="M411.77,573.9a3.24,3.24,0,0,0,1.41,4.26A3.17,3.17,0,1,0,416,572.5a3.27,3.27,0,0,0-4.23,1.4Z" transform="translate(-181 -342.43)" fill="#bc0001"/><path d="M421.41,449.8a3.21,3.21,0,1,0,.7,2.387A3.21,3.21,0,0,0,421.41,449.8Z" transform="translate(-181 -342.43)" fill="#f00001"/><path d="M407.92,450.21a3.16,3.16,0,0,0-4.58-.16,3.251,3.251,0,1,0,4.44,4.75,3.17,3.17,0,0,0,.14-4.59Z" transform="translate(-181 -342.43)" fill="#f00001"/><path d="M428.73,459.75a3.19,3.19,0,1,0,.482,2.444,3.21,3.21,0,0,0-.482-2.444Z" transform="translate(-181 -342.43)" fill="#f00001"/><path d="M404.54,462.06a3.16,3.16,0,1,0,.7,2.373,3.17,3.17,0,0,0-.7-2.373Z" transform="translate(-181 -342.43)" fill="#f00001"/><path d="M400.34,502.6a3.241,3.241,0,1,0,4.045,2.155,3.241,3.241,0,0,0-4.045-2.155Z" transform="translate(-181 -342.43)" fill="#f00001"/><path d="M445.55,514.54a3.2,3.2,0,1,0,2.39.694A3.21,3.21,0,0,0,445.55,514.54Z" transform="translate(-181 -342.43)" fill="#fe7e07"/><path d="M432.25,517.9a3.25,3.25,0,1,0,1.712-3.2,3.24,3.24,0,0,0-1.712,3.2Z" transform="translate(-181 -342.43)" fill="#fe7e07"/><path d="M251.1,516.16a3.18,3.18,0,0,0,2.65,3.82,3.3,3.3,0,0,0,1.16-6.48,3.17,3.17,0,0,0-3.81,2.66Z" transform="translate(-181 -342.43)" fill="#f00001"/><path d="M267.78,517.76a3.237,3.237,0,1,0-3.61,2.72,3.26,3.26,0,0,0,3.61-2.72Z" transform="translate(-181 -342.43)" fill="#f00001"/><path d="M381.21,485.11a3.33,3.33,0,0,0-.66-3.09,3.44,3.44,0,0,0-2.29-1.22,3,3,0,0,0-2.34.79A3.36,3.36,0,0,0,375,485a3.08,3.08,0,0,0,.6,1.09,3.322,3.322,0,0,0,4.52.52,2.92,2.92,0,0,0,1.09-1.5Z" transform="translate(-181 -342.43)" fill="#f00001"/><path d="M400.38,485.46a3.29,3.29,0,0,0,4.34,1.19,3.194,3.194,0,0,0-3.18-5.54A3.29,3.29,0,0,0,400.38,485.46Z" transform="translate(-181 -342.43)" fill="#f00001"/><path d="M368.84,484.57a3.15,3.15,0,1,0,.922,2.311,3.15,3.15,0,0,0-.922-2.311Z" transform="translate(-181 -342.43)" fill="#f00001"/><path d="M406,583.81a3.24,3.24,0,0,0,.88,4.38,3.17,3.17,0,1,0,3.51-5.27A3.22,3.22,0,0,0,406,583.81Z" transform="translate(-181 -342.43)" fill="#f00001"/><path d="M264,640.06a3.21,3.21,0,1,0-1.558-1.934A3.21,3.21,0,0,0,264,640.06Z" transform="translate(-181 -342.43)" fill="#f00001"/><path d="M403.68,622.32a3.21,3.21,0,1,0,.756,2.379,3.22,3.22,0,0,0-.756-2.379Z" transform="translate(-181 -342.43)" fill="#fe7e07"/><path d="M248.69,617a3.17,3.17,0,0,0,4.59-.36,3.25,3.25,0,0,0-4.95-4.21,3.18,3.18,0,0,0,.36,4.57Z" transform="translate(-181 -342.43)" fill="#f00001"/><path d="M260.14,608.79a3.16,3.16,0,1,0,4.42-.61,3.16,3.16,0,0,0-4.42.61Z" transform="translate(-181 -342.43)" fill="#f00001"/><path d="M276.13,611.07a3.14,3.14,0,0,0,4.4-1.2,3.2,3.2,0,0,0-5.52-3.23,3.13,3.13,0,0,0,1.12,4.43Z" transform="translate(-181 -342.43)" fill="#f00001"/><path d="M379.69,634.87a3.21,3.21,0,1,0,4.31,1.27,3.21,3.21,0,0,0-4.31-1.27Z" transform="translate(-181 -342.43)" fill="#bc0001"/><path d="M374.49,625.84a3.339,3.339,0,1,0,4.34,1.31A3.25,3.25,0,0,0,374.49,625.84Z" transform="translate(-181 -342.43)" fill="#fe7e07"/><path d="M389.76,628.87a3.21,3.21,0,1,0,4.42.84A3.21,3.21,0,0,0,389.76,628.87Z" transform="translate(-181 -342.43)" fill="#bc0001"/><path d="M362,645.84a3.21,3.21,0,1,0-.99,3.435A3.23,3.23,0,0,0,362,645.84Z" transform="translate(-181 -342.43)" fill="#f00001"/><path d="M356.52,636.69a3.25,3.25,0,1,0-2.313,3.882A3.25,3.25,0,0,0,356.52,636.69Z" transform="translate(-181 -342.43)" fill="#f00001"/><path d="M373.24,641.53a3.22,3.22,0,1,0-.328,3.3A3.22,3.22,0,0,0,373.24,641.53Z" transform="translate(-181 -342.43)" fill="#bc0001"/><path d="M350.39,649a3.21,3.21,0,1,0-1.33,3.321A3.24,3.24,0,0,0,350.39,649Z" transform="translate(-181 -342.43)" fill="#f00001"/><path d="M355.64,626a3.17,3.17,0,1,0-.641,3.217A3.164,3.164,0,0,0,355.64,626Z" transform="translate(-181 -342.43)" fill="#fe7e07"/><path d="M285.41,588.59a3.137,3.137,0,0,0-.29.58,2.93,2.93,0,0,0-.19,1.24,3.21,3.21,0,0,0,1.67,2.68,4.008,4.008,0,0,0,.63.3,3.28,3.28,0,0,0,1.31.18,3.11,3.11,0,0,0,2.56-1.66,3.3,3.3,0,0,0-5.69-3.32Z" transform="translate(-181 -342.43)" fill="#f00001"/><path d="M356.1,603.62a3.24,3.24,0,1,0-.268,3.435A3.24,3.24,0,0,0,356.1,603.62Z" transform="translate(-181 -342.43)" fill="#f00001"/><path d="M384.63,619.79a3.21,3.21,0,1,0,4.45.79,3.21,3.21,0,0,0-4.45-.79Z" transform="translate(-181 -342.43)" fill="#f00001"/><path d="M223.1,578.94a3.25,3.25,0,1,0-3.3-.234A3.25,3.25,0,0,0,223.1,578.94Z" transform="translate(-181 -342.43)" fill="#fe7e07"/><path d="M394.05,612.66a3.216,3.216,0,1,0,4.55.33,3.29,3.29,0,0,0-4.55-.33Z" transform="translate(-181 -342.43)" fill="#f00001"/><path d="M412.42,614a3.22,3.22,0,1,0,.924,3.162A3.22,3.22,0,0,0,412.42,614Z" transform="translate(-181 -342.43)" fill="#bc0001"/><path d="M390.42,591.9a3.21,3.21,0,1,0,.986,2.28,3.2,3.2,0,0,0-.986-2.28Z" transform="translate(-181 -342.43)" fill="#f00001"/><path d="M395.67,601.45a3.163,3.163,0,1,0-.16,4.47,3.163,3.163,0,0,0,.16-4.47Z" transform="translate(-181 -342.43)" fill="#f00001"/><path d="M377.23,599.49a3.27,3.27,0,0,0-.64,4.45,3.2,3.2,0,1,0,5.1-3.86,3.25,3.25,0,0,0-4.46-.59Z" transform="translate(-181 -342.43)" fill="#f00001"/><path d="M247.19,573.09a3.28,3.28,0,0,0-4.34-1.2,3.194,3.194,0,0,0,3.18,5.54,3.28,3.28,0,0,0,1.16-4.34Z" transform="translate(-181 -342.43)" fill="#f00001"/><path d="M218.84,598.8a3.21,3.21,0,1,0-.469-2.445,3.21,3.21,0,0,0,.469,2.445Z" transform="translate(-181 -342.43)" fill="#fe7e07"/><path d="M261.79,586.34a3.18,3.18,0,0,0,4.6.17,3.242,3.242,0,1,0-4.38-4.78,3.19,3.19,0,0,0-.22,4.61Z" transform="translate(-181 -342.43)" fill="#f00001"/><path d="M409.6,497.58a3.2,3.2,0,1,0-4.048-1.787,3.2,3.2,0,0,0,4.048,1.787Z" transform="translate(-181 -342.43)" fill="#bc0001"/><path d="M428.93,586a3.21,3.21,0,1,0,4.3-1.34A3.21,3.21,0,0,0,428.93,586Z" transform="translate(-181 -342.43)" fill="#bc0001"/><path d="M438,564.41a3.268,3.268,0,1,0,3.96-2.15A3.24,3.24,0,0,0,438,564.41Z" transform="translate(-181 -342.43)" fill="#bc0001"/><path d="M427,564.5a3.31,3.31,0,0,0,2,4.11,3.25,3.25,0,0,0,2.09-6.15A3.32,3.32,0,0,0,427,564.5Z" transform="translate(-181 -342.43)" fill="#bc0001"/><path d="M424.47,479.6a3.25,3.25,0,1,0,4.315,1.585,3.25,3.25,0,0,0-4.315-1.585Z" transform="translate(-181 -342.43)" fill="#bc0001"/><path d="M436.05,479.82a3.22,3.22,0,1,0,3.3.328,3.22,3.22,0,0,0-3.3-.328Z" transform="translate(-181 -342.43)" fill="#bc0001"/><path d="M430.65,469.06a3.22,3.22,0,1,0,2.474-.267,3.22,3.22,0,0,0-2.474.267Z" transform="translate(-181 -342.43)" fill="#bc0001"/><path d="M411.23,541.14a3.28,3.28,0,0,0,2.7,3.59,3.194,3.194,0,1,0,.86-6.33,3.26,3.26,0,0,0-3.56,2.74Z" transform="translate(-181 -342.43)" fill="#bc0001"/><path d="M442.63,541.46a3.21,3.21,0,1,0,3.45-2.89A3.21,3.21,0,0,0,442.63,541.46Z" transform="translate(-181 -342.43)" fill="#bc0001"/><path d="M438.53,542.21a3.2,3.2,0,0,0-2.89-3.59,3.25,3.25,0,1,0,2.89,3.59Z" transform="translate(-181 -342.43)" fill="#bc0001"/><path d="M412,529.62a3.22,3.22,0,1,0,3.14-3.19,3.22,3.22,0,0,0-3.14,3.19Z" transform="translate(-181 -342.43)" fill="#bc0001"/><path d="M421.71,541.12a3.24,3.24,0,0,0,2.78,3.52,3.17,3.17,0,1,0,.74-6.29A3.26,3.26,0,0,0,421.71,541.12Z" transform="translate(-181 -342.43)" fill="#bc0001"/><path d="M422.86,596a3.21,3.21,0,1,0,4.41-.9,3.21,3.21,0,0,0-4.41.9Z" transform="translate(-181 -342.43)" fill="#bc0001"/><path d="M410.34,595.61a3.237,3.237,0,1,0,4.48-.66,3.24,3.24,0,0,0-4.48.66Z" transform="translate(-181 -342.43)" fill="#bc0001"/><path d="M409.13,506.76a3.24,3.24,0,0,0,3.85,2.29,3.193,3.193,0,1,0-1.61-6.18,3.23,3.23,0,0,0-2.24,3.89Z" transform="translate(-181 -342.43)" fill="#bc0001"/><path d="M426.12,505.45a3.11,3.11,0,0,0-3.88-2.35,3.164,3.164,0,0,0,1.45,6.16,3.13,3.13,0,0,0,2.43-3.81Z" transform="translate(-181 -342.43)" fill="#bc0001"/><path d="M443.53,502.67a3.18,3.18,0,1,0,2.448.452A3.21,3.21,0,0,0,443.53,502.67Z" transform="translate(-181 -342.43)" fill="#bc0001"/><path d="M428.19,517.49a3.14,3.14,0,1,0-.7,2.377,3.17,3.17,0,0,0,.7-2.377Z" transform="translate(-181 -342.43)" fill="#bc0001"/><path d="M411.32,518.1a3.27,3.27,0,0,0,3.54,2.77,3.2,3.2,0,1,0-.81-6.34,3.27,3.27,0,0,0-2.73,3.57Z" transform="translate(-181 -342.43)" fill="#bc0001"/><path d="M403.45,514.32a3.2,3.2,0,1,0,2.438.569,3.23,3.23,0,0,0-2.438-.569Z" transform="translate(-181 -342.43)" fill="#bc0001"/><path d="M417.86,482.49a3.13,3.13,0,0,0-4.3-1.4,3.17,3.17,0,1,0,2.81,5.68,3.12,3.12,0,0,0,1.49-4.28Z" transform="translate(-181 -342.43)" fill="#bc0001"/><path d="M430.38,506.25a3.3,3.3,0,0,0,3.78,2.5,3.16,3.16,0,0,0,2.5-3.85,3.2,3.2,0,0,0-3.85-2.5,3.28,3.28,0,0,0-2.43,3.85Z" transform="translate(-181 -342.43)" fill="#bc0001"/><path d="M422.69,493.72a3.19,3.19,0,1,0-.146,2.458,3.21,3.21,0,0,0,.146-2.458Z" transform="translate(-181 -342.43)" fill="#bc0001"/><path d="M382.33,495.78a3.32,3.32,0,0,0,4.35,1.3,2.9,2.9,0,0,0,1-.8,3.38,3.38,0,0,0-2.45-5.38,2.222,2.222,0,0,0-.63,0,2.921,2.921,0,0,0-1.19.44,3.32,3.32,0,0,0-1.08,4.44Z" transform="translate(-181 -342.43)" fill="#bc0001"/><path d="M314.48,651.56a3.2,3.2,0,1,0-1.125,2.2,3.21,3.21,0,0,0,1.125-2.2Z" transform="translate(-181 -342.43)" fill="#bc0001"/><path d="M290.89,603.36a3.24,3.24,0,1,0,4.1-1.574A3.229,3.229,0,0,0,290.89,603.36Z" transform="translate(-181 -342.43)" fill="#bc0001"/><path d="M326.29,610.27a3.24,3.24,0,1,0,3.019-3.325,3.24,3.24,0,0,0-3.019,3.325Z" transform="translate(-181 -342.43)" fill="#bc0001"/><path d="M338.53,619.53a3.2,3.2,0,1,0-1.168,3.072,3.2,3.2,0,0,0,1.168-3.072Z" transform="translate(-181 -342.43)" fill="#bc0001"/><path d="M355.29,576.83a3.26,3.26,0,0,0-.91,4.36,3.16,3.16,0,1,0,5.27-3.49,3.24,3.24,0,0,0-4.36-.87Z" transform="translate(-181 -342.43)" fill="#bc0001"/><path d="M323.49,603.14a3.24,3.24,0,0,0,3.31-3.28,3.3,3.3,0,0,0-6.59,0,3.23,3.23,0,0,0,3.28,3.28Z" transform="translate(-181 -342.43)" fill="#bc0001"/><path d="M314.66,620.27a3.2,3.2,0,1,0-1.934,2.623,3.2,3.2,0,0,0,1.934-2.623Z" transform="translate(-181 -342.43)" fill="#bc0001"/><path d="M302.47,596.66a3.294,3.294,0,1,0-4.23,1.95,3.3,3.3,0,0,0,4.23-1.95Z" transform="translate(-181 -342.43)" fill="#bc0001"/><path d="M310.67,602a3.19,3.19,0,0,0,3.83-2.66,3.3,3.3,0,0,0-6.49-1.15,3.18,3.18,0,0,0,2.66,3.81Z" transform="translate(-181 -342.43)" fill="#bc0001"/><path d="M302,639.41a3.243,3.243,0,1,0,3.725-2.675A3.243,3.243,0,0,0,302,639.41Z" transform="translate(-181 -342.43)" fill="#bc0001"/><path d="M292.45,640.42a3.17,3.17,0,0,0,4-2.25,3.25,3.25,0,0,0-6.26-1.74,3.18,3.18,0,0,0,2.26,3.99Z" transform="translate(-181 -342.43)" fill="#bc0001"/><path d="M332.66,641.17a3.23,3.23,0,1,0-.817,2.368A3.25,3.25,0,0,0,332.66,641.17Z" transform="translate(-181 -342.43)" fill="#bc0001"/><path d="M344.71,639.58a3.25,3.25,0,1,0-1.133,3.1A3.25,3.25,0,0,0,344.71,639.58Z" transform="translate(-181 -342.43)" fill="#bc0001"/><path d="M326.51,651.88a3.22,3.22,0,1,0-1.553,2.938A3.22,3.22,0,0,0,326.51,651.88Z" transform="translate(-181 -342.43)" fill="#bc0001"/><path d="M350.19,616.86a3.2,3.2,0,1,0-.793,3.168A3.2,3.2,0,0,0,350.19,616.86Z" transform="translate(-181 -342.43)" fill="#bc0001"/><path d="M293.25,629.82a3.13,3.13,0,1,0-1.89-1.581,3.14,3.14,0,0,0,1.89,1.581Z" transform="translate(-181 -342.43)" fill="#bc0001"/><path d="M281.78,625.6a3.16,3.16,0,1,0-1.7-1.786,3.15,3.15,0,0,0,1.7,1.786Z" transform="translate(-181 -342.43)" fill="#bc0001"/><path d="M278.82,632.16a3.25,3.25,0,1,0,4.122-1.538,3.25,3.25,0,0,0-4.122,1.538Z" transform="translate(-181 -342.43)" fill="#bc0001"/><path d="M305.13,632.67a3.11,3.11,0,0,0,3.69-2.64,3.163,3.163,0,1,0-6.23-1.1,3.12,3.12,0,0,0,2.54,3.74Z" transform="translate(-181 -342.43)" fill="#bc0001"/><path d="M382.06,563.22a3.33,3.33,0,0,0,1.05,4.42,2.9,2.9,0,0,0,1.19.46,2.67,2.67,0,0,0,.63,0,3.39,3.39,0,0,0,2.48-5.37,2.92,2.92,0,0,0-1-.81A3.32,3.32,0,0,0,382.06,563.22Z" transform="translate(-181 -342.43)" fill="#bc0001"/><path d="M393.81,563.33A3.3,3.3,0,1,0,398,561.8a3.24,3.24,0,0,0-4.19,1.53Z" transform="translate(-181 -342.43)" fill="#bc0001"/><path d="M400.73,541.19a3.229,3.229,0,1,0,3.6-2.73A3.24,3.24,0,0,0,400.73,541.19Z" transform="translate(-181 -342.43)" fill="#bc0001"/><path d="M376.41,551.31a3.25,3.25,0,0,0,1.67,4.13,3.16,3.16,0,1,0,2.43-5.83,3.25,3.25,0,0,0-4.1,1.7Z" transform="translate(-181 -342.43)" fill="#bc0001"/><path d="M396.47,542.38a3.23,3.23,0,0,0,.07-.69,3.15,3.15,0,0,0-2.719-3.12,3.645,3.645,0,0,0-.661,0,3.29,3.29,0,0,0-2.13,5.57,3.24,3.24,0,0,0,1.63.93,2.36,2.36,0,0,0,.65.08A3.2,3.2,0,0,0,396.47,542.38Z" transform="translate(-181 -342.43)" fill="#bc0001"/><path d="M398.11,552.52a3.24,3.24,0,1,0,2.829-2.277A3.24,3.24,0,0,0,398.11,552.52Z" transform="translate(-181 -342.43)" fill="#bc0001"/><path d="M393.12,554.82a3.21,3.21,0,1,0-6-2.22,3.26,3.26,0,0,0,.74,3.45,3.43,3.43,0,0,0,1.06.72,2.767,2.767,0,0,0,.62.19,2.679,2.679,0,0,0,.63,0A3.35,3.35,0,0,0,393.12,554.82Z" transform="translate(-181 -342.43)" fill="#bc0001"/><path d="M387.25,529.52a3.14,3.14,0,1,0-.962,2.274,3.14,3.14,0,0,0,.962-2.274Z" transform="translate(-181 -342.43)" fill="#bc0001"/><path d="M391.29,528.91a2.6,2.6,0,0,0-.05.63,3.26,3.26,0,0,0,3.11,3.3,2.771,2.771,0,0,0,1.25-.2,3.36,3.36,0,0,0,0-6.17,3.08,3.08,0,0,0-1.25-.21A3.31,3.31,0,0,0,391.29,528.91Z" transform="translate(-181 -342.43)" fill="#bc0001"/><path d="M379.7,540.63a3.24,3.24,0,0,0,2.44,3.71,3.16,3.16,0,1,0,1.24-6.19,3.24,3.24,0,0,0-3.68,2.48Z" transform="translate(-181 -342.43)" fill="#bc0001"/><path d="M402.71,609.12a3.25,3.25,0,1,0-.017-4.492,3.25,3.25,0,0,0,.017,4.492Z" transform="translate(-181 -342.43)" fill="#bc0001"/><path d="M399.47,597.43a3.161,3.161,0,1,0-.375-4.455A3.161,3.161,0,0,0,399.47,597.43Z" transform="translate(-181 -342.43)" fill="#bc0001"/><path d="M371.1,561.15a3.24,3.24,0,0,0,.83,4.37,3.16,3.16,0,1,0,3.52-5.24A3.24,3.24,0,0,0,371.1,561.15Z" transform="translate(-181 -342.43)" fill="#bc0001"/><path d="M315.13,541a3.272,3.272,0,1,0-3.12,3.2,3.19,3.19,0,0,0,3.12-3.2Z" transform="translate(-181 -342.43)" fill="#bc0001"/><path d="M338.77,541.11a3.22,3.22,0,0,0-3.11-3.17,3.16,3.16,0,1,0,0,6.31,3.22,3.22,0,0,0,3.11-3.14Z" transform="translate(-181 -342.43)" fill="#bc0001"/><path d="M320.53,541a3.23,3.23,0,0,0,3.28,3.3,3.29,3.29,0,1,0,0-6.58,3.22,3.22,0,0,0-3.28,3.28Z" transform="translate(-181 -342.43)" fill="#bc0001"/><path d="M362.41,541.2a3.21,3.21,0,1,0-3.14,3.19A3.21,3.21,0,0,0,362.41,541.2Z" transform="translate(-181 -342.43)" fill="#bc0001"/><path d="M320.71,552.35a3.18,3.18,0,0,0-3.11-3.23,3.222,3.222,0,1,0,3.11,3.23Z" transform="translate(-181 -342.43)" fill="#bc0001"/><path d="M345.47,552.45a3.24,3.24,0,0,0-3.12-3.17,3.16,3.16,0,1,0,0,6.31A3.23,3.23,0,0,0,345.47,552.45Z" transform="translate(-181 -342.43)" fill="#bc0001"/><path d="M326.67,552.38a3.23,3.23,0,0,0,3.28,3.3,3.29,3.29,0,1,0,0-6.58,3.22,3.22,0,0,0-3.28,3.28Z" transform="translate(-181 -342.43)" fill="#bc0001"/><path d="M357.84,552.5a3.21,3.21,0,1,0-3.14,3.19,3.21,3.21,0,0,0,3.14-3.19Z" transform="translate(-181 -342.43)" fill="#bc0001"/><path d="M326.86,562.79a3.272,3.272,0,1,0-3.12,3.2A3.19,3.19,0,0,0,326.86,562.79Z" transform="translate(-181 -342.43)" fill="#bc0001"/><path d="M351.93,562.89a3.25,3.25,0,0,0-3.12-3.17,3.16,3.16,0,0,0,0,6.32A3.24,3.24,0,0,0,351.93,562.89Z" transform="translate(-181 -342.43)" fill="#bc0001"/><path d="M333,562.82a3.22,3.22,0,0,0,3.27,3.3,3.29,3.29,0,0,0,0-6.58,3.22,3.22,0,0,0-3.27,3.28Z" transform="translate(-181 -342.43)" fill="#bc0001"/><path d="M326.82,571.91a3.17,3.17,0,0,0-3.11-3.22,3.217,3.217,0,1,0,3.11,3.22Z" transform="translate(-181 -342.43)" fill="#bc0001"/><path d="M355.26,572a3.22,3.22,0,0,0-3.11-3.17,3.16,3.16,0,1,0,0,6.31A3.22,3.22,0,0,0,355.26,572Z" transform="translate(-181 -342.43)" fill="#bc0001"/><path d="M334.62,571.94a3.23,3.23,0,0,0,3.28,3.31,3.3,3.3,0,0,0,0-6.59,3.24,3.24,0,0,0-3.28,3.28Z" transform="translate(-181 -342.43)" fill="#bc0001"/><path d="M333.9,579.43a3.18,3.18,0,0,0-3.11-3.23,3.22,3.22,0,1,0,0,6.43,3.18,3.18,0,0,0,3.11-3.2Z" transform="translate(-181 -342.43)" fill="#bc0001"/><path d="M364.46,562.94a3.21,3.21,0,1,0-3.14,3.18,3.21,3.21,0,0,0,3.14-3.18Z" transform="translate(-181 -342.43)" fill="#bc0001"/><path d="M363.92,574.21a3.16,3.16,0,1,0,.106-4.374A3.16,3.16,0,0,0,363.92,574.21Z" transform="translate(-181 -342.43)" fill="#bc0001"/><path d="M387.94,573.38a3.268,3.268,0,1,0,4.42-.89,3.24,3.24,0,0,0-4.42.89Z" transform="translate(-181 -342.43)" fill="#bc0001"/><path d="M405.58,576.93a3.13,3.13,0,0,0-1.2-4.4,3.2,3.2,0,0,0-3.23,5.52,3.14,3.14,0,0,0,4.43-1.12Z" transform="translate(-181 -342.43)" fill="#bc0001"/><path d="M375.28,572.83a3.12,3.12,0,0,0-.77,2.3,3.41,3.41,0,0,0,1,2.24,3.09,3.09,0,0,0,3.56.45,3.47,3.47,0,0,0,1.08-.85,3.21,3.21,0,0,0-.38-4.64,3.41,3.41,0,0,0-1.77-.66,3.35,3.35,0,0,0-1.78.37A3.18,3.18,0,0,0,375.28,572.83Z" transform="translate(-181 -342.43)" fill="#bc0001"/><path d="M393.58,583.27a3.25,3.25,0,0,0,.55,4.46,3.2,3.2,0,1,0,3.9-5.07,3.27,3.27,0,0,0-4.45.61Z" transform="translate(-181 -342.43)" fill="#bc0001"/><path d="M338.52,651a3.21,3.21,0,1,0-.693,2.394A3.21,3.21,0,0,0,338.52,651Z" transform="translate(-181 -342.43)" fill="#bc0001"/><path d="M366.48,581.56a3.274,3.274,0,1,0,.45-.46,3.251,3.251,0,0,0-.45.46Z" transform="translate(-181 -342.43)" fill="#bc0001"/><path d="M386.09,517.14a3.14,3.14,0,1,0-.515,2.435,3.14,3.14,0,0,0,.515-2.435Z" transform="translate(-181 -342.43)" fill="#bc0001"/><path d="M399.12,471.94a3.16,3.16,0,1,0,.637,2.409A3.17,3.17,0,0,0,399.12,471.94Z" transform="translate(-181 -342.43)" fill="#bc0001"/><path d="M382.52,505.22a3.12,3.12,0,0,0-4.24-1.68,3.16,3.16,0,1,0,2.39,5.85,3.12,3.12,0,0,0,1.85-4.17Z" transform="translate(-181 -342.43)" fill="#bc0001"/><path d="M391.15,515a3.28,3.28,0,0,0,2.08,5.58,3.634,3.634,0,0,0,.66,0,3.15,3.15,0,0,0,2.74-3.1,2.69,2.69,0,0,0-.06-.69,3.21,3.21,0,0,0-3.14-2.77,2.89,2.89,0,0,0-.65.08A3.2,3.2,0,0,0,391.15,515Z" transform="translate(-181 -342.43)" fill="#bc0001"/><path d="M386.1,517.33a3.12,3.12,0,1,0-.69,2.373,3.15,3.15,0,0,0,.69-2.373Z" transform="translate(-181 -342.43)" fill="#bc0001"/><path d="M387.27,506.45a3.225,3.225,0,1,0,1.84-4.2,3.31,3.31,0,0,0-1.84,4.2Z" transform="translate(-181 -342.43)" fill="#bc0001"/><path d="M376.7,494.22a3.14,3.14,0,1,0,.463,2.446,3.14,3.14,0,0,0-.463-2.446Z" transform="translate(-181 -342.43)" fill="#bc0001"/><path d="M257.77,620.06a3.25,3.25,0,1,0,4.45-.75,3.25,3.25,0,0,0-4.45.75Z" transform="translate(-181 -342.43)" fill="#bc0001"/><path d="M252.6,629.15a3.22,3.22,0,1,0,4.42-.8,3.22,3.22,0,0,0-4.42.8Z" transform="translate(-181 -342.43)" fill="#bc0001"/><path d="M269.29,631.09a3.21,3.21,0,0,0,4.4-1.34,3.25,3.25,0,0,0-5.72-3.08,3.19,3.19,0,0,0,1.32,4.42Z" transform="translate(-181 -342.43)" fill="#bc0001"/><path d="M243.54,626.26a3.23,3.23,0,1,0-1.147-2.2A3.21,3.21,0,0,0,243.54,626.26Z" transform="translate(-181 -342.43)" fill="#bc0001"/><path d="M367.93,632.51a3.25,3.25,0,1,0-1.923,3.893A3.25,3.25,0,0,0,367.93,632.51Z" transform="translate(-181 -342.43)" fill="#bc0001"/><path d="M296.24,648.81a3.21,3.21,0,1,0,3.808-2.445A3.18,3.18,0,0,0,296.24,648.81Z" transform="translate(-181 -342.43)" fill="#bc0001"/><path d="M344.19,629.09a3.17,3.17,0,1,0-1.02,3.112,3.165,3.165,0,0,0,1.02-3.112Z" transform="translate(-181 -342.43)" fill="#bc0001"/><path d="M344.66,607.61a3.24,3.24,0,1,0-.9,3.2A3.24,3.24,0,0,0,344.66,607.61Z" transform="translate(-181 -342.43)" fill="#bc0001"/><path d="M308.72,587.62a3.16,3.16,0,1,0,3.7-2.348A3.16,3.16,0,0,0,308.72,587.62Z" transform="translate(-181 -342.43)" fill="#bc0001"/><path d="M338.39,587.74a3.16,3.16,0,1,0-.974,3.082,3.16,3.16,0,0,0,.974-3.082Z" transform="translate(-181 -342.43)" fill="#bc0001"/><path d="M280.22,597.62a3.24,3.24,0,1,0,4.375-1.066A3.24,3.24,0,0,0,280.22,597.62Z" transform="translate(-181 -342.43)" fill="#bc0001"/><path d="M326.7,589.46a3.16,3.16,0,1,0-1.524,2.884,3.16,3.16,0,0,0,1.524-2.884Z" transform="translate(-181 -342.43)" fill="#bc0001"/><path d="M301.75,581.9a3.25,3.25,0,0,0-4.13,1.66,3.16,3.16,0,0,0,5.83,2.44,3.25,3.25,0,0,0-1.7-4.1Z" transform="translate(-181 -342.43)" fill="#bc0001"/><path d="M377.09,616.08a3.17,3.17,0,1,0,.117,3.273,3.165,3.165,0,0,0-.117-3.273Z" transform="translate(-181 -342.43)" fill="#bc0001"/><path d="M361.39,612.65a3.2,3.2,0,1,0-.337,3.263,3.2,3.2,0,0,0,.337-3.263Z" transform="translate(-181 -342.43)" fill="#bc0001"/><path d="M366.65,621.69a3.161,3.161,0,1,0-1.675,4.145,3.161,3.161,0,0,0,1.675-4.145Z" transform="translate(-181 -342.43)" fill="#bc0001"/><path d="M339,598.27a3.291,3.291,0,1,0-2.7,3.795A3.3,3.3,0,0,0,339,598.27Z" transform="translate(-181 -342.43)" fill="#bc0001"/><path d="M350.77,594.59a3.3,3.3,0,1,0-2.033,4.073,3.3,3.3,0,0,0,2.033-4.073Z" transform="translate(-181 -342.43)" fill="#bc0001"/><path d="M287.54,577.41a3.16,3.16,0,1,0,4.342-.791A3.16,3.16,0,0,0,287.54,577.41Z" transform="translate(-181 -342.43)" fill="#bc0001"/><path d="M349.52,583.77a3.16,3.16,0,1,0-1.73,4.12,3.16,3.16,0,0,0,1.73-4.12Z" transform="translate(-181 -342.43)" fill="#bc0001"/><path d="M372.07,590.32a3.3,3.3,0,0,0-.58,4.48,3.24,3.24,0,1,0,5.07-4,3.3,3.3,0,0,0-4.49-.48Z" transform="translate(-181 -342.43)" fill="#bc0001"/><path d="M360.15,587.64a3.43,3.43,0,0,0-2.88.17,3.38,3.38,0,0,0-1.64,3.14,3.14,3.14,0,0,0,4.83,2.43,3.32,3.32,0,0,0,1-.88,3.15,3.15,0,0,0,.19-3.6A3.28,3.28,0,0,0,360.15,587.64Z" transform="translate(-181 -342.43)" fill="#bc0001"/><path d="M386.8,609.29a3.19,3.19,0,1,0,.65,2.386,3.17,3.17,0,0,0-.65-2.386Z" transform="translate(-181 -342.43)" fill="#bc0001"/><path d="M367.6,605.87a3.29,3.29,0,0,0-1.2,4.34,3.2,3.2,0,1,0,5.54-3.19A3.28,3.28,0,0,0,367.6,605.87Z" transform="translate(-181 -342.43)" fill="#bc0001"/><path d="M362.44,596.84a3.3,3.3,0,0,0-1.24,4.34,3.234,3.234,0,1,0,5.61-3.22A3.31,3.31,0,0,0,362.44,596.84Z" transform="translate(-181 -342.43)" fill="#bc0001"/><path d="M206.7,505.49a3.21,3.21,0,1,0-2.545,2.517A3.23,3.23,0,0,0,206.7,505.49Z" transform="translate(-181 -342.43)" fill="#bc0001"/><path d="M211.11,504a3.16,3.16,0,0,0,2.47,3.88,3.247,3.247,0,0,0,1.4-6.34,3.19,3.19,0,0,0-3.87,2.46Z" transform="translate(-181 -342.43)" fill="#bc0001"/><path d="M238.62,506.09a3.25,3.25,0,0,0-2.21-3.92,3.2,3.2,0,1,0-1.66,6.18,3.24,3.24,0,0,0,3.87-2.26Z" transform="translate(-181 -342.43)" fill="#bc0001"/><path d="M227.88,506.14a3.26,3.26,0,0,0-2.34-3.82,3.17,3.17,0,1,0-1.5,6.15,3.25,3.25,0,0,0,3.84-2.33Z" transform="translate(-181 -342.43)" fill="#bc0001"/><path d="M276.48,497.39a3.25,3.25,0,0,0-.83-4.37,3.16,3.16,0,1,0-3.52,5.24,3.25,3.25,0,0,0,4.35-.87Z" transform="translate(-181 -342.43)" fill="#bc0001"/><path d="M214.5,492a3.17,3.17,0,0,0,2,4.12,3.251,3.251,0,1,0,2.08-6.16A3.16,3.16,0,0,0,214.5,492Z" transform="translate(-181 -342.43)" fill="#fe7e07"/><path d="M204.32,528.8a3.272,3.272,0,1,0-3.12,3.2,3.19,3.19,0,0,0,3.12-3.2Z" transform="translate(-181 -342.43)" fill="#bc0001"/><path d="M265.51,495.32a3.32,3.32,0,0,0-1.05-4.42,3.17,3.17,0,0,0-4.49,1.19,3,3,0,0,0-.3.63,3.44,3.44,0,0,0-.18,1.3,3.1,3.1,0,0,0,1.66,2.57,3.33,3.33,0,0,0,4.36-1.27Z" transform="translate(-181 -342.43)" fill="#bc0001"/><path d="M225.12,528.88a3.254,3.254,0,1,0-3.12,3.15,3.16,3.16,0,0,0,3.12-3.15Z" transform="translate(-181 -342.43)" fill="#bc0001"/><path d="M235.53,528.92a3.21,3.21,0,1,0-3.14,3.19A3.21,3.21,0,0,0,235.53,528.92Z" transform="translate(-181 -342.43)" fill="#bc0001"/><path d="M236.35,517.4a3.28,3.28,0,0,0-2.71-3.58,3.194,3.194,0,0,0-.86,6.33A3.28,3.28,0,0,0,236.35,517.4Z" transform="translate(-181 -342.43)" fill="#bc0001"/><path d="M205,517.08a3.21,3.21,0,1,0-3.46,2.89,3.21,3.21,0,0,0,3.46-2.89Z" transform="translate(-181 -342.43)" fill="#bc0001"/><path d="M209,516.33a3.21,3.21,0,1,0,1.2-2.2A3.21,3.21,0,0,0,209,516.33Z" transform="translate(-181 -342.43)" fill="#bc0001"/><path d="M271.16,507.23a3.24,3.24,0,0,0-1.66-4.12,3.16,3.16,0,1,0-2.44,5.83,3.26,3.26,0,0,0,4.1-1.71Z" transform="translate(-181 -342.43)" fill="#bc0001"/><path d="M248.1,461.11a3.161,3.161,0,1,0,.375,4.455,3.161,3.161,0,0,0-.375-4.455Z" transform="translate(-181 -342.43)" fill="#bc0001"/><path d="M237.23,462.94a3.26,3.26,0,0,0-.53-4.51,3.22,3.22,0,0,0-4.56.6,3.18,3.18,0,0,0,.62,4.56,3.26,3.26,0,0,0,4.47-.65Z" transform="translate(-181 -342.43)" fill="#bc0001"/><path d="M242.37,495.17a3.276,3.276,0,1,0-4.14,1.73,3.23,3.23,0,0,0,4.14-1.73Z" transform="translate(-181 -342.43)" fill="#bc0001"/><path d="M283.65,484.33a3.16,3.16,0,1,0-.106,4.373,3.16,3.16,0,0,0,.106-4.373Z" transform="translate(-181 -342.43)" fill="#bc0001"/><path d="M253.76,495.21a3.276,3.276,0,1,0-4.23,1.54,3.24,3.24,0,0,0,4.23-1.54Z" transform="translate(-181 -342.43)" fill="#bc0001"/><path d="M254,475.28a3.26,3.26,0,0,0-.55-4.47,3.2,3.2,0,1,0-3.9,5.07,3.27,3.27,0,0,0,4.45-.6Z" transform="translate(-181 -342.43)" fill="#bc0001"/><path d="M242,481.61a3.14,3.14,0,0,0,1.2,4.41,3.2,3.2,0,0,0,3.23-5.52,3.14,3.14,0,0,0-4.43,1.11Z" transform="translate(-181 -342.43)" fill="#bc0001"/><path d="M281.17,472.92a3.15,3.15,0,0,0-4.64-.41,3.19,3.19,0,0,0-.42,4.63,3.3,3.3,0,0,0,5.06-4.22Z" transform="translate(-181 -342.43)" fill="#bc0001"/><path d="M235.8,484.65a3.24,3.24,0,0,0-1.41-4.26,3.162,3.162,0,1,0-2.84,5.65,3.26,3.26,0,0,0,4.25-1.39Z" transform="translate(-181 -342.43)" fill="#bc0001"/><path d="M216.92,589.49a3.22,3.22,0,1,0-3.352.033,3.22,3.22,0,0,0,3.352-.033Z" transform="translate(-181 -342.43)" fill="#bc0001"/><path d="M240.4,541.5a3.2,3.2,0,0,0,3.72,2.73,3.253,3.253,0,1,0-3.72-2.73Z" transform="translate(-181 -342.43)" fill="#bc0001"/><path d="M217.18,552.3a3.3,3.3,0,1,0-2.42,3.84A3.28,3.28,0,0,0,217.18,552.3Z" transform="translate(-181 -342.43)" fill="#bc0001"/><path d="M234.59,549.49a3.2,3.2,0,1,0,3.792,2.318A3.2,3.2,0,0,0,234.59,549.49Z" transform="translate(-181 -342.43)" fill="#bc0001"/><path d="M221.45,553.1a3.12,3.12,0,0,0,3.88,2.35,3.17,3.17,0,1,0-1.45-6.17,3.13,3.13,0,0,0-2.43,3.82Z" transform="translate(-181 -342.43)" fill="#bc0001"/><path d="M202,544a3.22,3.22,0,1,0-2.388-.7A3.22,3.22,0,0,0,202,544Z" transform="translate(-181 -342.43)" fill="#bc0001"/><path d="M219.38,541.05a3.15,3.15,0,1,0,.7-2.371,3.16,3.16,0,0,0-.7,2.371Z" transform="translate(-181 -342.43)" fill="#bc0001"/><path d="M229.89,541.25a3.14,3.14,0,0,0,3.63,2.77,3.2,3.2,0,0,0-.81-6.35,3.13,3.13,0,0,0-2.82,3.58Z" transform="translate(-181 -342.43)" fill="#bc0001"/><path d="M224.88,564.83a3.18,3.18,0,1,0,.138-2.467,3.21,3.21,0,0,0-.138,2.467Z" transform="translate(-181 -342.43)" fill="#bc0001"/><path d="M238,561a3.2,3.2,0,1,0,4.048,1.787A3.2,3.2,0,0,0,238,561Z" transform="translate(-181 -342.43)" fill="#bc0001"/><path d="M265.24,562.76a3.35,3.35,0,0,0-3.13-1.64,3.239,3.239,0,0,0-1.22.34,3.294,3.294,0,1,0,4.35,1.3Z" transform="translate(-181 -342.43)" fill="#bc0001"/><path d="M207.22,567.49a3.221,3.221,0,1,0-4.01-2.16,3.221,3.221,0,0,0,4.01,2.16Z" transform="translate(-181 -342.43)" fill="#bc0001"/><path d="M218.3,567.77a3.25,3.25,0,1,0-3.956-2.1,3.25,3.25,0,0,0,3.956,2.1Z" transform="translate(-181 -342.43)" fill="#bc0001"/><path d="M350.88,441.9a3.2,3.2,0,1,0-3.869,2.083,3.2,3.2,0,0,0,3.869-2.083Z" transform="translate(-181 -342.43)" fill="#bc0001"/><path d="M270.48,442.46a3.17,3.17,0,1,0-.117-3.273,3.165,3.165,0,0,0,.117,3.273Z" transform="translate(-181 -342.43)" fill="#bc0001"/><path d="M303.38,429.45a3.164,3.164,0,1,0,2.6-3.645A3.164,3.164,0,0,0,303.38,429.45Z" transform="translate(-181 -342.43)" fill="#bc0001"/><path d="M321,437.88a3.2,3.2,0,1,0,.912-2.318A3.2,3.2,0,0,0,321,437.88Z" transform="translate(-181 -342.43)" fill="#bc0001"/><path d="M336.51,435.47a3.13,3.13,0,0,0-3.6,2.8,3.194,3.194,0,0,0,6.33.86,3.13,3.13,0,0,0-2.73-3.66Z" transform="translate(-181 -342.43)" fill="#bc0001"/><path d="M297.38,441.68a3.2,3.2,0,1,0,.793-3.168A3.2,3.2,0,0,0,297.38,441.68Z" transform="translate(-181 -342.43)" fill="#bc0001"/><path d="M327,427.48a3.161,3.161,0,1,0,3.345-2.965A3.161,3.161,0,0,0,327,427.48Z" transform="translate(-181 -342.43)" fill="#bc0001"/><path d="M309.28,418a3.25,3.25,0,1,0-2.724,3.621A3.25,3.25,0,0,0,309.28,418Z" transform="translate(-181 -342.43)" fill="#bc0001"/><path d="M315.11,427.79a3.17,3.17,0,1,0,1.371-2.978A3.164,3.164,0,0,0,315.11,427.79Z" transform="translate(-181 -342.43)" fill="#bc0001"/><path d="M279.63,426a3.32,3.32,0,0,0,4.19,1.76,3.043,3.043,0,1,0-4.15-1.76Z" transform="translate(-181 -342.43)" fill="#bc0001"/><path d="M351.28,464.17a3.29,3.29,0,1,0-4.2,1.865A3.29,3.29,0,0,0,351.28,464.17Z" transform="translate(-181 -342.43)" fill="#bc0001"/><path d="M356.68,455.18a3.23,3.23,0,1,0-4.143,1.692,3.23,3.23,0,0,0,4.143-1.692Z" transform="translate(-181 -342.43)" fill="#bc0001"/><path d="M336.9,456.58a3.19,3.19,0,0,0-3.82,2.66,2.849,2.849,0,0,0,0,.65,3.29,3.29,0,0,0,6.29,1.12,5.454,5.454,0,0,0,.21-.61,3.19,3.19,0,0,0-2.68-3.82Z" transform="translate(-181 -342.43)" fill="#bc0001"/><path d="M354.32,428.72a3.14,3.14,0,1,0,1.859,1.6,3.16,3.16,0,0,0-1.859-1.6Z" transform="translate(-181 -342.43)" fill="#bc0001"/><path d="M326.93,448.29a3.24,3.24,0,1,0,3.48-2.98,3.239,3.239,0,0,0-3.48,2.98Z" transform="translate(-181 -342.43)" fill="#bc0001"/><path d="M314.82,448.72a3.24,3.24,0,1,0,1.378-3.008,3.24,3.24,0,0,0-1.378,3.008Z" transform="translate(-181 -342.43)" fill="#bc0001"/><path d="M291.47,454.93a3.24,3.24,0,1,0,.274-3.425A3.24,3.24,0,0,0,291.47,454.93Z" transform="translate(-181 -342.43)" fill="#bc0001"/><path d="M296.81,464a3.29,3.29,0,1,0,1.98-4.21,3.29,3.29,0,0,0-1.98,4.21Z" transform="translate(-181 -342.43)" fill="#bc0001"/><path d="M324,465.8a3.15,3.15,0,1,0,2.268.972A3.14,3.14,0,0,0,324,465.8Z" transform="translate(-181 -342.43)" fill="#bc0001"/><path d="M359.26,476.64a3.12,3.12,0,0,0-4.46,1,3.169,3.169,0,1,0,4.46-1Z" transform="translate(-181 -342.43)" fill="#bc0001"/><path d="M225,483.09a3.3,3.3,0,0,0-1.49-4.29,3.249,3.249,0,1,0,1.49,4.29Z" transform="translate(-181 -342.43)" fill="#bc0001"/><path d="M418.49,469a3.23,3.23,0,1,0,2.477-.4,3.25,3.25,0,0,0-2.477.4Z" transform="translate(-181 -342.43)" fill="#bc0001"/><path d="M297.18,409.52a3.19,3.19,0,1,0,.456-2.446,3.22,3.22,0,0,0-.456,2.446Z" transform="translate(-181 -342.43)" fill="#bc0001"/><path d="M351.34,409.74a3.22,3.22,0,1,0-3.78,2.45,3.22,3.22,0,0,0,3.78-2.45Z" transform="translate(-181 -342.43)" fill="#bc0001"/><path d="M230.55,472.67a3.21,3.21,0,1,0-4.38,1.14,3.21,3.21,0,0,0,4.38-1.14Z" transform="translate(-181 -342.43)" fill="#bc0001"/><path d="M315.38,469.61a3.16,3.16,0,1,0-2.532,3.554,3.16,3.16,0,0,0,2.532-3.554Z" transform="translate(-181 -342.43)" fill="#bc0001"/><path d="M404,432.28a3.23,3.23,0,1,0,1.152,2.208A3.21,3.21,0,0,0,404,432.28Z" transform="translate(-181 -342.43)" fill="#bc0001"/><path d="M389.8,438.48a3.25,3.25,0,1,0-4.46.76,3.25,3.25,0,0,0,4.46-.76Z" transform="translate(-181 -342.43)" fill="#bc0001"/><path d="M367.35,460.92a3.24,3.24,0,1,0-4.342,1.023,3.24,3.24,0,0,0,4.342-1.023Z" transform="translate(-181 -342.43)" fill="#bc0001"/><path d="M391,462.59a3.2,3.2,0,1,0,.93,2.312A3.21,3.21,0,0,0,391,462.59Z" transform="translate(-181 -342.43)" fill="#bc0001"/><path d="M396.18,453.14a3.12,3.12,0,0,0-4.53.18,3.162,3.162,0,1,0,4.59,4.35,3.12,3.12,0,0,0-.06-4.53Z" transform="translate(-181 -342.43)" fill="#bc0001"/><path d="M398.88,441.57a3.16,3.16,0,0,0-4.58.36,3.25,3.25,0,0,0,4.94,4.21,3.18,3.18,0,0,0-.36-4.57Z" transform="translate(-181 -342.43)" fill="#bc0001"/><path d="M387.43,449.76a3.17,3.17,0,1,0-4.42.6A3.17,3.17,0,0,0,387.43,449.76Z" transform="translate(-181 -342.43)" fill="#bc0001"/><path d="M362.16,470a3.3,3.3,0,1,0-4.93.68,3.86,3.86,0,0,0,.5.38,3.34,3.34,0,0,0,4.43-1.06Z" transform="translate(-181 -342.43)" fill="#bc0001"/><path d="M267.89,423.68a3.21,3.21,0,1,0-4.32-1.28,3.21,3.21,0,0,0,4.32,1.28Z" transform="translate(-181 -342.43)" fill="#bc0001"/><path d="M374.13,417.4a3.22,3.22,0,1,0-4.148,1.572,3.22,3.22,0,0,0,4.148-1.572Z" transform="translate(-181 -342.43)" fill="#bc0001"/><path d="M360.81,408.94a3.21,3.21,0,1,0,2.11,4.06,3.17,3.17,0,0,0-2.11-4.06Z" transform="translate(-181 -342.43)" fill="#bc0001"/><path d="M355.12,418.12a3.16,3.16,0,0,0-4,2.25,3.25,3.25,0,0,0,6.26,1.74,3.18,3.18,0,0,0-2.26-3.99Z" transform="translate(-181 -342.43)" fill="#bc0001"/><path d="M368.75,426.39a3.25,3.25,0,1,0-4.135,1.554,3.25,3.25,0,0,0,4.135-1.554Z" transform="translate(-181 -342.43)" fill="#bc0001"/><path d="M257.15,466.64a3.21,3.21,0,1,0-.961-2.29,3.2,3.2,0,0,0,.961,2.29Z" transform="translate(-181 -342.43)" fill="#bc0001"/><path d="M285.14,461.7a3.3,3.3,0,0,0,1.24-4.34,3.24,3.24,0,1,0-5.62,3.22,3.31,3.31,0,0,0,4.38,1.12Z" transform="translate(-181 -342.43)" fill="#bc0001"/><path d="M251.9,457.1a3.17,3.17,0,1,0-.837-3.15,3.17,3.17,0,0,0,.837,3.15Z" transform="translate(-181 -342.43)" fill="#bc0001"/><path d="M350,475a3.16,3.16,0,1,0-4.135,1.695A3.16,3.16,0,0,0,350,475Z" transform="translate(-181 -342.43)" fill="#bc0001"/><path d="M290.3,470.73a3.35,3.35,0,0,0,1.3-4.36,3.292,3.292,0,1,0-5.71,3.28,3.33,3.33,0,0,0,4.41,1.08Z" transform="translate(-181 -342.43)" fill="#bc0001"/><path d="M243.89,436.22a3.22,3.22,0,1,0-.747-2.373,3.22,3.22,0,0,0,.747,2.373Z" transform="translate(-181 -342.43)" fill="#bc0001"/><path d="M257.81,429.67a3.21,3.21,0,1,0-4.42-.84,3.21,3.21,0,0,0,4.42.84Z" transform="translate(-181 -342.43)" fill="#bc0001"/><path d="M273.09,432.71a3.387,3.387,0,1,0-4.34-1.32,3.27,3.27,0,0,0,4.34,1.32Z" transform="translate(-181 -342.43)" fill="#bc0001"/><path d="M235.16,444.5a3.214,3.214,0,1,0,.015-4.545,3.214,3.214,0,0,0-.015,4.545Z" transform="translate(-181 -342.43)" fill="#bc0001"/><path d="M280,452.67a3.28,3.28,0,0,0,1.2-4.33,3.194,3.194,0,1,0-5.54,3.18,3.27,3.27,0,0,0,4.34,1.15Z" transform="translate(-181 -342.43)" fill="#bc0001"/><path d="M253.53,445.88a3.3,3.3,0,0,0,.44-4.51,3.26,3.26,0,1,0-.44,4.51Z" transform="translate(-181 -342.43)" fill="#bc0001"/><path d="M257.32,540.72a3.33,3.33,0,0,0-3.64-2.71,3.292,3.292,0,0,0,1.11,6.49A3.34,3.34,0,0,0,257.32,540.72Z" transform="translate(-181 -342.43)" fill="#bc0001"/><path d="M270.87,564.32a3.13,3.13,0,1,0-.458-2.444A3.14,3.14,0,0,0,270.87,564.32Z" transform="translate(-181 -342.43)" fill="#bc0001"/><path d="M266.74,529.05a3.22,3.22,0,0,0-3.11-3.17,3.16,3.16,0,1,0,0,6.31A3.23,3.23,0,0,0,266.74,529.05Z" transform="translate(-181 -342.43)" fill="#bc0001"/><path d="M261.49,541.41a3.12,3.12,0,1,0,.5-2.437A3.13,3.13,0,0,0,261.49,541.41Z" transform="translate(-181 -342.43)" fill="#bc0001"/><path d="M256.52,529a3.17,3.17,0,0,0-3.11-3.23,3.23,3.23,0,1,0,0,6.45,3.17,3.17,0,0,0,3.11-3.22Z" transform="translate(-181 -342.43)" fill="#bc0001"/><path d="M327.16,485.85a3.17,3.17,0,0,1-3.14,3.2,3.22,3.22,0,1,1,0-6.43,3.18,3.18,0,0,1,3.14,3.23Z" transform="translate(-181 -342.43)" fill="#bc0001"/><path d="M355.6,486a3.23,3.23,0,0,1-3.14,3.15,3.16,3.16,0,1,1,0-6.32A3.24,3.24,0,0,1,355.6,486Z" transform="translate(-181 -342.43)" fill="#bc0001"/><path d="M335,485.88a3.22,3.22,0,0,1,3.3-3.28,3.3,3.3,0,0,1,0,6.59,3.23,3.23,0,0,1-3.3-3.31Z" transform="translate(-181 -342.43)" fill="#bc0001"/><path d="M334.3,478.39a3.18,3.18,0,0,1-3.14,3.2,3.22,3.22,0,1,1,0-6.43,3.18,3.18,0,0,1,3.14,3.23Z" transform="translate(-181 -342.43)" fill="#bc0001"/><path d="M278.73,574a3.14,3.14,0,1,0-.922-2.306A3.15,3.15,0,0,0,278.73,574Z" transform="translate(-181 -342.43)" fill="#bc0001"/><path d="M411.8,471.88a3.16,3.16,0,1,0,.443,2.425,3.15,3.15,0,0,0-.443-2.425Z" transform="translate(-181 -342.43)" fill="#bc0001"/><path d="M416,459.76a3.2,3.2,0,0,0-4.55-.63,3.25,3.25,0,0,0,3.91,5.19,3.19,3.19,0,0,0,.64-4.56Z" transform="translate(-181 -342.43)" fill="#bc0001"/><path d="M385.78,472.2a3.18,3.18,0,0,0-4.59-.17,3.24,3.24,0,0,0,4.37,4.78,3.19,3.19,0,0,0,.22-4.61Z" transform="translate(-181 -342.43)" fill="#bc0001"/><path d="M371.48,472.88a3,3,0,0,0-.57-.39,3.29,3.29,0,0,0-1.89-.41,3.07,3.07,0,0,0-2.17,1.18,3.28,3.28,0,0,0-.34,3.42,3.14,3.14,0,0,0,.83,1.1,3.3,3.3,0,0,0,4.05.16,6.413,6.413,0,0,0,.49-.42,3.2,3.2,0,0,0-.4-4.64Z" transform="translate(-181 -342.43)" fill="#bc0001"/><path d="M393.6,482.07a3.2,3.2,0,0,0-4.52-.84,3.25,3.25,0,1,0,4.52.84Z" transform="translate(-181 -342.43)" fill="#bc0001"/><path d="M254.46,503.73A3.21,3.21,0,0,0,256.4,508a3.29,3.29,0,0,0,2.28-6.17,3.21,3.21,0,0,0-4.22,1.9Z" transform="translate(-181 -342.43)" fill="#bc0001"/><path d="M234.42,617.93a3.22,3.22,0,1,0-.911-2.295,3.23,3.23,0,0,0,.911,2.295Z" transform="translate(-181 -342.43)" fill="#bc0001"/><path d="M251.39,605.4a3.13,3.13,0,0,0,4.54-.18,3.178,3.178,0,1,0-4.54.18Z" transform="translate(-181 -342.43)" fill="#bc0001"/><path d="M256.57,596a3.2,3.2,0,1,0-.92-2.309,3.21,3.21,0,0,0,.92,2.309Z" transform="translate(-181 -342.43)" fill="#bc0001"/><path d="M271,594.93a3.16,3.16,0,0,0,4.57-.5,3.24,3.24,0,0,0-5-4.07,3.16,3.16,0,0,0,.43,4.57Z" transform="translate(-181 -342.43)" fill="#bc0001"/><path d="M265.86,604.14a3.14,3.14,0,0,0,4.53-.63,3.2,3.2,0,0,0-5.07-3.89,3.15,3.15,0,0,0,.54,4.52Z" transform="translate(-181 -342.43)" fill="#bc0001"/><path d="M226.16,608.75a3.23,3.23,0,1,0-.686-2.4A3.22,3.22,0,0,0,226.16,608.75Z" transform="translate(-181 -342.43)" fill="#bc0001"/><path d="M254,576.47a3.19,3.19,0,0,0,4.52.85,3.24,3.24,0,0,0-3.62-5.37,3.2,3.2,0,0,0-.9,4.52Z" transform="translate(-181 -342.43)" fill="#bc0001"/><path d="M272,572.42a3.29,3.29,0,0,0-4.51-.53,3,3,0,0,0-1.2,2.16,3.27,3.27,0,0,0,.39,1.89,2.46,2.46,0,0,0,.39.58,3.19,3.19,0,0,0,4.63.43A3.31,3.31,0,0,0,272,572.42Z" transform="translate(-181 -342.43)" fill="#bc0001"/><path d="M211.52,578.73a3.239,3.239,0,1,0-4.22-1.78A3.239,3.239,0,0,0,211.52,578.73Z" transform="translate(-181 -342.43)" fill="#bc0001"/><path d="M239.65,608.33a3.16,3.16,0,0,0,4.58.16,3.25,3.25,0,0,0-4.44-4.74,3.15,3.15,0,0,0-.14,4.58Z" transform="translate(-181 -342.43)" fill="#bc0001"/><path d="M243,596.49a3.16,3.16,0,1,0-.7-2.378A3.16,3.16,0,0,0,243,596.49Z" transform="translate(-181 -342.43)" fill="#bc0001"/><path d="M231.58,598.79a3.19,3.19,0,1,0-.643-2.421,3.22,3.22,0,0,0,.643,2.421Z" transform="translate(-181 -342.43)" fill="#bc0001"/><path d="M235.77,586.66a3.16,3.16,0,1,0-.443-2.425,3.15,3.15,0,0,0,.443,2.425Z" transform="translate(-181 -342.43)" fill="#bc0001"/><path d="M229.7,576.06a3.12,3.12,0,1,0-.173-2.472A3.14,3.14,0,0,0,229.7,576.06Z" transform="translate(-181 -342.43)" fill="#bc0001"/><path d="M248.46,586.6a3.16,3.16,0,0,0,4.52.58,3.2,3.2,0,0,0-3.86-5.11,3.15,3.15,0,0,0-.66,4.53Z" transform="translate(-181 -342.43)" fill="#bc0001"/><path d="M276.09,585.66a3.2,3.2,0,0,0,4.63-.38,3.3,3.3,0,0,0-5-4.25,3.2,3.2,0,0,0,.37,4.63Z" transform="translate(-181 -342.43)" fill="#bc0001"/><path d="M331.27,572.36,327,551.59q-4.45-21.78-19.18-29.84Q295.46,515,277,518.18q-18,3.06-26.21,11.92-7,7.6-5.2,16.32l1.47,7.2.91-.15q2.67-4.62,9.08-8.49a54.6,54.6,0,0,1,20.15-7.25q21.25-3.63,24.65,13l.23,1.17-8.61,1.47q-25.85,4.41-36.48,14.55-9.56,9.08-6.9,22.08,2.57,12.57,15.2,18.73,12.82,6.13,30.24,3.17l5-.85q16.5-2.8,25.1-13.64T331.27,572.36Z" transform="translate(-181 -342.43)" fill="#151011"/><path d="M326.64,563.86l-4-21.38q-4.17-22.41-18-30.72-11.64-6.92-29.05-3.68-16.92,3.17-24.66,12.28-6.57,7.83-4.9,16.8l1.39,7.41.86-.16a24.57,24.57,0,0,1,8.54-8.73,48.361,48.361,0,0,1,19-7.46q20-3.74,23.19,13.33l.23,1.21L291,544.28q-24.32,4.53-34.32,15-9,9.35-6.45,22.79,2.41,12.93,14.3,19.28,12.06,6.31,28.45,3.26l4.65-.87q15.52-2.91,23.61-14.05T326.64,563.86Z" transform="translate(-181 -342.43)" fill="#fda205"/><path d="M326.64,563.86l-4-21.38q-4.17-22.41-18-30.72-11.64-6.92-29.05-3.68-16.92,3.17-24.66,12.28-6.57,7.83-4.9,16.8l1.39,7.41.86-.16a24.57,24.57,0,0,1,8.54-8.73,48.361,48.361,0,0,1,19-7.46q20-3.74,23.19,13.33l.23,1.21L291,544.28q-24.32,4.53-34.32,15-9,9.35-6.45,22.79,2.41,12.93,14.3,19.28,12.06,6.31,28.45,3.26l4.65-.87q15.52-2.91,23.61-14.05T326.64,563.86Z" transform="translate(-181 -342.43)" fill="#f5fa16"/><path d="M467.69,543.89c.57,3-.27,5.93-2.5,8.91a12.79,12.79,0,0,1-8,5.18l-48.58,9.36q-17,3.27-19.53-9.84-2.13-11.09,9.89-30.26l19.85-32.18c1.45-2.45,2.68-4.67,3.71-6.66a36.324,36.324,0,0,0,2.62-6.25l-49,9.43L374.73,484q-2.53-13.12,13.91-16.29L433.91,459c5.28-1,9.63-.38,13,1.9a12.11,12.11,0,0,1,5,7.86q2.43,12.57-7.65,28.87l-19.75,31.78a73.812,73.812,0,0,0-7,14.2l48.4-9.33Z" transform="translate(-181 -342.43)" fill="#151011"/><path d="M406.49,567.12q1,4.41-2.2,9a12.89,12.89,0,0,1-7.84,5.44l-48.25,11q-16.87,3.84-19.84-9.2-2.49-11,8.89-30.56L356,519.92q2-3.74,3.48-6.77a36.49,36.49,0,0,0,2.42-6.34l-48.62,11-1.71-7.53q-3-13,13.37-16.73l45-10.2q7.89-1.78,13.07,1.47a12.17,12.17,0,0,1,5.21,7.69q2.83,12.48-6.71,29.11l-18.69,32.41a74,74,0,0,0-6.56,14.42l48.07-10.91Z" transform="translate(-181 -342.43)" fill="#151011"/><path d="M463.12,535.88q.86,4.44-2.5,8.91a12.9,12.9,0,0,1-8,5.19L404,559.33q-17,3.28-19.52-9.84-2.14-11.09,9.88-30.26l19.86-32.18c1.44-2.45,2.68-4.67,3.7-6.66a36,36,0,0,0,2.62-6.25l-48.95,9.43L370.15,476q-2.52-13.12,13.92-16.29L429.33,451q7.95-1.53,13,1.91a12.14,12.14,0,0,1,5,7.85q2.42,12.57-7.65,28.88L419.9,521.4a74.792,74.792,0,0,0-7,14.19l48.41-9.32Z" transform="translate(-181 -342.43)" fill="#fea405"/><path d="M463.12,535.88q.86,4.44-2.5,8.91a12.9,12.9,0,0,1-8,5.19L404,559.33q-17,3.28-19.52-9.84-2.14-11.09,9.88-30.26l19.86-32.18c1.44-2.45,2.68-4.67,3.7-6.66a36,36,0,0,0,2.62-6.25l-48.95,9.43L370.15,476q-2.52-13.12,13.92-16.29L429.33,451q7.95-1.53,13,1.91a12.14,12.14,0,0,1,5,7.85q2.42,12.57-7.65,28.88L419.9,521.4a74.792,74.792,0,0,0-7,14.19l48.41-9.32Z" transform="translate(-181 -342.43)" fill="#f5fa16"/><path d="M401.92,559.11q1,4.41-2.21,9a12.78,12.78,0,0,1-7.83,5.44l-48.25,11q-16.89,3.84-19.84-9.19-2.49-11,8.89-30.57l18.78-32.82q2.06-3.74,3.48-6.77a35.57,35.57,0,0,0,2.43-6.34l-48.62,11L307,502.31q-3-13,13.37-16.73l45-10.2q7.88-1.78,13.06,1.47a12.15,12.15,0,0,1,5.22,7.69q2.84,12.48-6.71,29.12l-18.69,32.4a75,75,0,0,0-6.57,14.42l48.07-10.91Z" transform="translate(-181 -342.43)" fill="#fea405"/><path d="M401.92,559.11q1,4.41-2.21,9a12.78,12.78,0,0,1-7.83,5.44l-48.25,11q-16.89,3.84-19.84-9.19-2.49-11,8.89-30.57l18.78-32.82q2.06-3.74,3.48-6.77a35.57,35.57,0,0,0,2.43-6.34l-48.62,11L307,502.31q-3-13,13.37-16.73l45-10.2q7.88-1.78,13.06,1.47a12.15,12.15,0,0,1,5.22,7.69q2.84,12.48-6.71,29.12l-18.69,32.4a75,75,0,0,0-6.57,14.42l48.07-10.91Z" transform="translate(-181 -342.43)" fill="#f5fa16"/><path d="M292,558.19a17.18,17.18,0,0,0-14.75,5,4.74,4.74,0,0,0-1.32,3.85l.15-.07h0c0-.11-.3-3.23,3.46-4.69,5-1.92,10.91-.15,14,.66a35.79,35.79,0,0,1,9.38,4.38c.72.43,1.57,1.15,1.67,1.2s.41,0,.24-.5A16.85,16.85,0,0,0,292,558.19Z" transform="translate(-181 -342.43)" fill="#fd0706"/><path d="M300.36,585.74a7.525,7.525,0,0,0-.62-.5,11.627,11.627,0,0,0-1.13-.75,39.433,39.433,0,0,0-4.95-2.45,46.077,46.077,0,0,0-7.36-2.57c-.18,0-.75-.17-1.55-.29a37.462,37.462,0,0,0,6,4.29l.49.28h0c3.49,1.91,8.63,4,9.63,3.06C301.09,586.61,300.9,586.24,300.36,585.74Z" transform="translate(-181 -342.43)" fill="url(#b)"/><path d="M302.4,566.42c1.28.85,2.41,1.5,2.48,1.88h0a.21.21,0,0,1-.29.19c-.1,0-.95-.77-1.67-1.2a35.082,35.082,0,0,0-7.63-3.79,8.907,8.907,0,0,1,2.36.51h0a17.434,17.434,0,0,1,2.76,1.26C301.07,565.65,301.75,566,302.4,566.42Z" transform="translate(-181 -342.43)" fill="url(#c)"/><path d="M294.89,590.26h-.36c-1.18-.17-3.37-.55-5.38-.83-1.18-.16-4.6-.4-6.38-.47a7,7,0,0,1-2.62-.7,8,8,0,0,1-1.87-1.38,8.559,8.559,0,0,1-2.41-4,3.2,3.2,0,0,1,1-2.73h0a3.669,3.669,0,0,1,1.33-.88,10.189,10.189,0,0,1,3.31-.37,24.418,24.418,0,0,1,3.27.31l-.15-.13a23.684,23.684,0,0,0-2.62-.32,12.238,12.238,0,0,0-3.58.21,4.14,4.14,0,0,0-2.2,1.42,4.847,4.847,0,0,0-.47.74,3.619,3.619,0,0,0-.23,1.79A8.82,8.82,0,0,0,278,587.1h0a8.329,8.329,0,0,0,1.92,1.42,7.549,7.549,0,0,0,2.78.74c1.81.07,5.21.3,6.34.46s2.62.39,3.71.57l1.11.17c.05,0,.72.1.82.1h.21a1,1,0,0,0,.27,0,.07.07,0,0,0,0-.07C295.27,590.38,295.08,590.29,294.89,590.26Z" transform="translate(-181 -342.43)" fill="url(#d)"/><path d="M276.84,580.12h0a3.2,3.2,0,0,0-1,2.73,8.56,8.56,0,0,0,2.41,4,8,8,0,0,0,1.87,1.38,7,7,0,0,0,2.62.7c1.78.07,5.2.31,6.38.47,2,.28,4.2.66,5.38.83h.36c-9.21-1.57-16.62-10.29-17.09-10.87A3.909,3.909,0,0,0,276.84,580.12Z" transform="translate(-181 -342.43)" fill="url(#e)"/><path d="M300.45,585.63h-.05a27.813,27.813,0,0,0-6.32-3.47,45.817,45.817,0,0,0-7.34-2.62c-.38-.1-.94-.22-1.07-.25-.36-.08-.71-.14-1.07-.2l.14.12h0c.8.12,1.37.25,1.55.29a46.07,46.07,0,0,1,7.36,2.57,39.434,39.434,0,0,1,4.95,2.45,11.641,11.641,0,0,1,1.13.75,7.5,7.5,0,0,1,.62.5c.54.5.73.87.52,1.07-1,.91-6.14-1.15-9.63-3.06h0l-.49-.28.14.09a32.471,32.471,0,0,0,8.81,3.57h.08a1.92,1.92,0,0,0,1.47-.17C301.5,586.73,301.22,586.26,300.45,585.63Z" transform="translate(-181 -342.43)" fill="url(#f)"/><path d="M305.14,574.34a12.269,12.269,0,0,0-1.14-1,38.617,38.617,0,0,0-7.18-3.8c-5.36-2.22-10.9-3.68-15-3.71a14.26,14.26,0,0,0-4.77.69,8.781,8.781,0,0,0-.86.36,7.357,7.357,0,0,0-1.21.69,4.234,4.234,0,0,0-.54.43,4.77,4.77,0,0,0-1.14,1.76,16.59,16.59,0,0,0-.71,7.68,17.25,17.25,0,0,0,7.27,11.5,17.51,17.51,0,0,0,9.43,2.87,13.09,13.09,0,0,0,5.46-1h.13a1,1,0,0,0,.32-.25h0a1,1,0,0,1-.27,0h-.21c-.1,0-.77-.09-.82-.1l-1.11-.17c-1.09-.18-2.45-.39-3.71-.57s-4.53-.39-6.34-.46a7.55,7.55,0,0,1-2.78-.74,8.329,8.329,0,0,1-1.92-1.42h0a8.82,8.82,0,0,1-2.53-4.21,3.62,3.62,0,0,1,.23-1.79,4.85,4.85,0,0,1,.47-.74,4.14,4.14,0,0,1,2.2-1.42,12.241,12.241,0,0,1,3.58-.21,23.7,23.7,0,0,1,2.62.32h0c.36.06.71.12,1.07.2a9.624,9.624,0,0,1,1.07.25,45.8,45.8,0,0,1,7.34,2.62,27.81,27.81,0,0,1,6.32,3.47h0c.78.63,1.06,1.1.81,1.34h-.06a15.51,15.51,0,0,0,3.93-5.75,14.34,14.34,0,0,0,1.15-5.24C306.23,575.79,306.36,575.46,305.14,574.34Z" transform="translate(-181 -342.43)" fill="url(#g)"/><path d="M295.22,590.58a1,1,0,0,1-.27,0h-.21c-.1,0-.77-.09-.82-.1l-1.11-.17c-1.09-.18-2.45-.39-3.71-.57s-4.53-.39-6.34-.46a7.551,7.551,0,0,1-2.78-.74,8.328,8.328,0,0,1-1.92-1.42h0a8.625,8.625,0,0,1-.81-.88L277,586l-.44.06a15.86,15.86,0,0,0,3.33,3,17.51,17.51,0,0,0,9.43,2.87,13.09,13.09,0,0,0,5.46-1h.13a1,1,0,0,0,.32-.25h0a.07.07,0,0,1-.01-.1Z" transform="translate(-181 -342.43)" fill="url(#h)"/><path d="M281.79,561.23a12.832,12.832,0,0,0-1.33.32c-.2.05-.4.12-.59.18l-.23.08a6,6,0,0,0-3.26,2.66.749.749,0,0,0-.06.13,4.14,4.14,0,0,0-.38,2.41l.15-.07h0c0-.11-.3-3.23,3.46-4.69a15.3,15.3,0,0,1,6.58-.81v-.4a15.316,15.316,0,0,0-4.34.19Z" transform="translate(-181 -342.43)" fill="url(#i)"/><path d="M286.13,561.44a15.3,15.3,0,0,0-6.58.81c-3.76,1.46-3.47,4.58-3.46,4.69h0a7.487,7.487,0,0,1,1-.43,14,14,0,0,1,4.82-.7,32.717,32.717,0,0,1,7.26,1.09,14.55,14.55,0,0,1-2.58-3.57A4.92,4.92,0,0,1,286.13,561.44Z" transform="translate(-181 -342.43)" fill="url(#j)"/><path d="M294.89,590.26h-.36c-1.18-.17-3.37-.55-5.38-.83-1.18-.16-4.6-.4-6.38-.47a4.48,4.48,0,0,1-.67-.07c-.39-.08-.73-.17-1.05-.26l-.48.22a7.571,7.571,0,0,0,2.19.49c1.81.07,5.21.3,6.34.46s2.62.39,3.71.57l1.11.17c.05,0,.72.1.82.1h.21a1,1,0,0,0,.27,0,.07.07,0,0,0,0-.07C295.27,590.38,295.08,590.29,294.89,590.26Z" transform="translate(-181 -342.43)" fill="url(#k)"/><path d="M277.2,563.23a5.6,5.6,0,0,0-.85,1.29h0a6,6,0,0,1,3.19-2.63h0l.27-.1c.19-.06.39-.13.59-.18a12.814,12.814,0,0,1,1.33-.32,16.279,16.279,0,0,1,5-.13,36.569,36.569,0,0,1,9.87,2.51h.24l.74.3a18.564,18.564,0,0,1,2.76,1.27c.66.37,1.34.71,2,1.14,1.28.85,2.41,1.5,2.48,1.88h0a.79.79,0,0,0-.05-.31,16.85,16.85,0,0,0-12.82-9.8,17.39,17.39,0,0,0-13.81,4,9.232,9.232,0,0,0-.94.92l-.06.07" transform="translate(-181 -342.43)" fill="url(#l)"/><path d="M281.85,561.21h.01Z" transform="translate(-181 -342.43)" fill="#fff"/><path d="M296.77,563.65a36,36,0,0,0-10-2.55l-.67-.06s4.57,1.1,5.42,1.3,5.36,1.37,5.36,1.37Z" transform="translate(-181 -342.43)" fill="url(#m)"/><path d="M296.57,569.37a43.44,43.44,0,0,0-14.69-3.56,14,14,0,0,0-4.82.7,7.479,7.479,0,0,0-1,.43l-.15.07h0l.28-.13a6.862,6.862,0,0,1,.86-.36,14.261,14.261,0,0,1,4.77-.69c4.07,0,9.61,1.49,15,3.71a39.52,39.52,0,0,1,7.2,3.8,36.446,36.446,0,0,0-7.45-3.97Z" transform="translate(-181 -342.43)" fill="url(#n)"/><path d="M259,583.42,229.63,510.5c-4.24-10.5-10.85-15.86-19.63-15.86a30.809,30.809,0,0,0-11.36,2.49l-10.44,4.21a1.23,1.23,0,0,0-.68,1.61l37.32,92.66c2.36,5.85,2.64,10.88.82,14.94s-5.83,7.39-11.92,9.85c-9.73,3.93-18.07,5.4-24.75,4.36a1.26,1.26,0,0,0-.64.08l-1.14.45a1.24,1.24,0,0,0-.68,1.61l5.77,14.29c2.11,5.24,6.78,8.61,13.88,10a34.557,34.557,0,0,0,6.55.62A46.28,46.28,0,0,0,230,648.18c15.54-6.27,25.88-15.55,30.74-27.6C265,609.47,264.46,597,259,583.42Z" transform="translate(-181 -342.43)" fill="#151011"/><path d="M253.55,576.17l-29.36-72.93c-4.25-10.52-10.85-15.85-19.63-15.85a30.569,30.569,0,0,0-11.36,2.49l-10.45,4.21a1.22,1.22,0,0,0-.67,1.6l37.32,92.67c2.36,5.85,2.63,10.87.82,14.94s-5.83,7.39-11.93,9.85c-9.73,3.92-18.06,5.39-24.74,4.36a1.16,1.16,0,0,0-.64.07l-1.14.46a1.23,1.23,0,0,0-.68,1.6l5.77,14.3c2.11,5.23,6.77,8.6,13.88,10a33.755,33.755,0,0,0,6.55.62,46.279,46.279,0,0,0,17.22-3.66c15.54-6.27,25.88-15.54,30.74-27.59C259.58,602.22,259,589.71,253.55,576.17Z" transform="translate(-181 -342.43)" fill="#fda205"/><path d="M253.55,576.17l-29.36-72.93c-4.25-10.52-10.85-15.85-19.63-15.85a30.569,30.569,0,0,0-11.36,2.49l-10.45,4.21a1.22,1.22,0,0,0-.67,1.6l37.32,92.67c2.36,5.85,2.63,10.87.82,14.94s-5.83,7.39-11.93,9.85c-9.73,3.92-18.06,5.39-24.74,4.36a1.16,1.16,0,0,0-.64.07l-1.14.46a1.23,1.23,0,0,0-.68,1.6l5.77,14.3c2.11,5.23,6.77,8.6,13.88,10a33.755,33.755,0,0,0,6.55.62,46.279,46.279,0,0,0,17.22-3.66c15.54-6.27,25.88-15.54,30.74-27.59C259.58,602.22,259,589.71,253.55,576.17Z" transform="translate(-181 -342.43)" fill="#f5fa16"/><path d="M610,511.21a40.66,40.66,0,0,1-16.88-3.51c-8.84-4.09-14.47-10.84-16.74-20.07-2.37-9.61-.47-18.11,5.64-25.27,6.62-7.74,18.4-13.74,35-17.84l6.25-1.54c-2.06-7.52-6.67-11.17-14.06-11.17a33.209,33.209,0,0,0-7.75,1.05,47.831,47.831,0,0,0-18.11,8.33c-3.69,2.76-6.23,5.66-7.6,8.65l-.39.86-3.67.89-2.29-9.33c-1.62-6.58-.16-13,4.32-19,5.17-6.83,13.72-11.75,25.44-14.64a58.09,58.09,0,0,1,13.76-1.8,37.19,37.19,0,0,1,17.35,4c10.2,5.34,17.3,15.91,21.12,31.44l5.3,21.5c2.54,10.32,1.12,19.75-4.2,28s-13.49,13.8-24.35,16.48l-4.68,1.15A56.438,56.438,0,0,1,610,511.21Zm12.08-46.27c-8.08,2-13.62,4.33-16.45,6.94-2.12,2.08-2.77,4.74-1.94,8.1,1.21,4.9,4.31,7.18,9.74,7.18h0a29.691,29.691,0,0,0,6.9-1c4.44-1.1,7.51-2.95,9.12-5.5s1.87-6,.82-10.21l-1.75-7.13Z" transform="translate(-181 -342.43)" fill="#fdb201"/><path d="M613,408.79a35.121,35.121,0,0,1,16.46,3.79q14.56,7.62,20.12,30.17l5.3,21.5q3.63,14.75-3.94,26.54t-23.19,15.64l-4.68,1.16a54.621,54.621,0,0,1-13,1.68A38.55,38.55,0,0,1,594,505.93q-12.45-5.76-15.66-18.76-3.33-13.53,5.24-23.55,9.56-11.17,34-17.21l8.15-2-.3-1.21q-3.28-13.32-16.12-13.32a34.641,34.641,0,0,0-8.22,1.11,49.39,49.39,0,0,0-18.83,8.68q-5.91,4.41-8.17,9.38l-.87.21-1.84-7.46q-2.21-9,4-17.35,7.35-9.72,24.35-13.91A55.69,55.69,0,0,1,613,408.79m.48,80.31a31.351,31.351,0,0,0,7.36-1q14.92-3.68,11.37-18.07L630,461l-8.33,2.05q-12.64,3.12-17.3,7.39-4,3.93-2.5,10,2.13,8.67,11.62,8.66M613,404.9h0a59.392,59.392,0,0,0-14.22,1.86c-12.16,3-21.08,8.15-26.51,15.33-4.87,6.53-6.44,13.46-4.68,20.63l1.84,7.46.92,3.76,3.77-.92.87-.21,1.83-.44.78-1.72a21.41,21.41,0,0,1,7-7.87,46,46,0,0,1,17.44-8,31.07,31.07,0,0,1,7.29-1c5.92,0,9.57,2.44,11.58,7.84l-4.24,1c-17.26,4.26-29,10.3-36,18.47-6.54,7.66-8.58,16.74-6.05,27,2.42,9.83,8.41,17,17.8,21.35A42.581,42.581,0,0,0,610,513.16a58.7,58.7,0,0,0,14-1.8l4.68-1.16c11.36-2.8,20-8.62,25.53-17.31s7.12-18.71,4.44-29.57l-5.3-21.5c-4-16.08-11.39-27.08-22.09-32.68A39.07,39.07,0,0,0,613,404.9Zm.48,80.32c-4.52,0-6.87-1.71-7.85-5.7-.86-3.48.33-5.19,1.45-6.3,1.69-1.55,5.85-4,15.51-6.39l4.55-1.12,1.3,5.24c.91,3.71.72,6.65-.59,8.72s-4,3.67-7.94,4.65a27.821,27.821,0,0,1-6.43.9Z" transform="translate(-181 -342.43)" fill="#c80001"/><path d="M654.87,464.25q3.63,14.75-3.94,26.54t-23.19,15.64l-4.68,1.16q-16.47,4.05-29.1-1.66-12.45-5.76-15.66-18.76-3.33-13.53,5.24-23.55,9.56-11.17,34-17.21l8.15-2-.3-1.21Q621.17,426,601.06,431a49.39,49.39,0,0,0-18.83,8.68q-5.91,4.41-8.17,9.38l-.87.21-1.84-7.46q-2.21-9,4-17.35,7.35-9.72,24.35-13.91,17.5-4.32,29.75,2.05,14.56,7.62,20.12,30.17ZM630,461l-8.33,2.05q-12.64,3.12-17.3,7.39-4,3.93-2.5,10,2.86,11.63,19,7.65,14.92-3.68,11.37-18.07Z" transform="translate(-181 -342.43)" fill="#f5fa16"/><path d="M681,488.35a36.77,36.77,0,0,1-11.87-1.89c-7-2.52-11.2-6.52-12.48-11.9l-2.89-12.17,3.47-.83.67.38a30.16,30.16,0,0,0,15,3.58,56.379,56.379,0,0,0,12.94-1.67c14.61-3.48,13.18-9.54,12.71-11.53a4.85,4.85,0,0,0-3.64-3.81,24.269,24.269,0,0,0-6.57-.68c-2.48,0-5.49.18-8.95.52-2.42.22-4.72.34-6.88.34-16.49,0-26.38-6.45-29.4-19.16-2.22-9.29-.3-18.11,5.69-26.2,6.06-8.36,15.09-14,26.85-16.82A51.3,51.3,0,0,1,687.37,385a31.19,31.19,0,0,1,13.28,2.74c5.9,2.79,9.56,7.06,10.89,12.69l2.5,10.49-3.52.83-.69-.42a26.7,26.7,0,0,0-14.24-3.61,53.59,53.59,0,0,0-12.24,1.58c-5.71,1.36-9.81,3.15-12.19,5.32A6.45,6.45,0,0,0,669,421.4a3.74,3.74,0,0,0,3.16,3,27.739,27.739,0,0,0,6.27.51c2.43,0,5.39-.13,8.86-.37,1.92-.14,3.76-.21,5.53-.21,17.73,0,28.36,6.93,31.6,20.59,2.57,10.77,1.1,19.82-4.36,26.89s-14.68,12-27.71,15.12A48.87,48.87,0,0,1,681,488.35Z" transform="translate(-181 -342.43)" fill="#fdb201"/><path d="M687.37,387a29.24,29.24,0,0,1,12.46,2.56q8,3.8,9.82,11.38l2.05,8.59-.85.2a28.5,28.5,0,0,0-15.26-3.9,55.38,55.38,0,0,0-12.69,1.64q-18.2,4.33-15.79,14.44a5.65,5.65,0,0,0,4.61,4.42,29.481,29.481,0,0,0,6.71.56q3.71,0,9-.38c1.88-.13,3.68-.2,5.41-.2q25.17,0,29.71,19.1,7.28,30.67-30.63,39.68A47.777,47.777,0,0,1,681,486.41a34.839,34.839,0,0,1-11.24-1.79q-9.54-3.42-11.22-10.51l-2.44-10.28.84-.2a31.89,31.89,0,0,0,16,3.83,58,58,0,0,0,13.39-1.72q16.51-3.93,14.16-13.87a6.74,6.74,0,0,0-5-5.22,25.6,25.6,0,0,0-7.11-.76c-2.56,0-5.61.17-9.14.53q-3.52.31-6.69.32-23.33,0-27.51-17.66-3.13-13.14,5.36-24.59,8.71-12,25.73-16.09a49.219,49.219,0,0,1,11.24-1.4m0-3.88a53.461,53.461,0,0,0-12.2,1.54c-12.22,2.91-21.64,8.83-28,17.59-6.33,8.54-8.36,17.9-6,27.78,2.23,9.41,9.48,20.64,31.29,20.64,2.22,0,4.59-.12,7-.34,3.41-.35,6.36-.52,8.78-.52a21.66,21.66,0,0,1,6,.6,2.9,2.9,0,0,1,2.33,2.41c.4,1.68,1.46,6.15-11.27,9.18a54.741,54.741,0,0,1-12.5,1.61,28.21,28.21,0,0,1-14-3.32l-1.34-.76-1.48.36-.85.2-3.77.91.9,3.77L654.73,475c1.44,6.06,6,10.52,13.69,13.27a39,39,0,0,0,12.55,2,51.659,51.659,0,0,0,11.84-1.47c13.47-3.2,23.15-8.53,28.79-15.83,5.83-7.56,7.42-17.16,4.72-28.53-2.4-10.07-10.15-22.08-33.49-22.08-1.82,0-3.73.07-5.68.21-3.42.24-6.35.36-8.72.36a25.122,25.122,0,0,1-5.75-.44c-1.29-.3-1.6-.75-1.79-1.55-.37-1.57-1.51-6.33,12.91-9.76a51.441,51.441,0,0,1,11.79-1.53A24.931,24.931,0,0,1,708.82,413l1.36.84,1.56-.37.85-.2,3.79-.89-.9-3.79L713.43,400c-1.47-6.23-5.49-10.94-11.94-14a33.12,33.12,0,0,0-14.12-2.93Z" transform="translate(-181 -342.43)" fill="#c80001"/><path d="M691.91,485.05q-12.3,2.93-22.18-.43-9.54-3.42-11.22-10.51l-2.44-10.28.84-.2q11.31,6.39,29.34,2.11,16.51-3.93,14.16-13.87a6.74,6.74,0,0,0-5-5.22q-4.59-1.39-16.25-.23-29.45,2.71-34.2-17.34-3.13-13.14,5.36-24.59,8.71-12,25.73-16.09,14.16-3.36,23.77,1.12,8,3.8,9.82,11.38l2.05,8.59-.85.2q-10.43-6.42-28-2.26-18.2,4.33-15.79,14.44a5.65,5.65,0,0,0,4.61,4.42q4,1,15.7.18,30.11-2.16,35.12,18.9Q729.82,476,691.91,485.05Z" transform="translate(-181 -342.43)" fill="#f5fa16"/><path d="M741.26,472.58c-7.81,0-13.07-4.52-15.63-13.45L693.77,348.21l9.14-2.63a28.551,28.551,0,0,1,7.75-1.21c5.34,0,12.35,2.2,15.37,12.71l6.08,21.17a31.556,31.556,0,0,1,4-5.88A24.13,24.13,0,0,1,748,364.12a57,57,0,0,1,15.56-2.4c18,0,30.43,11.3,36.83,33.6l16.25,56.57-9.49,2.72a25.611,25.611,0,0,1-7.05,1.1c-7.77,0-13-4.54-15.58-13.49l-10.94-38.08c-1.93-6.73-5-11.36-9.18-13.75a14.641,14.641,0,0,0-7.15-1.78,21.737,21.737,0,0,0-5.9.89,13.17,13.17,0,0,0-8.49,7c-2.44,4.57-2.65,10.4-.65,17.36l15.74,54.84-9.48,2.73a26.508,26.508,0,0,1-7.21,1.15Z" transform="translate(-181 -342.43)" fill="#fdb201"/><path d="M710.66,346.31q10.26,0,13.5,11.3l7.66,26.66a27.561,27.561,0,0,1,5.75-10.64A22.16,22.16,0,0,1,748.49,366a54.849,54.849,0,0,1,15-2.33q25.72,0,35,32.19l15.71,54.71-7.61,2.18a23.719,23.719,0,0,1-6.52,1q-10.24,0-13.71-12.07L775.42,403.6q-3.13-10.91-10.09-14.91a16.459,16.459,0,0,0-8.1-2,23.351,23.351,0,0,0-6.44,1,15.07,15.07,0,0,0-9.69,8q-4,7.53-.79,18.78l15.21,53-7.61,2.19a24.28,24.28,0,0,1-6.64,1q-10.31,0-13.76-12.05l-31.33-109,7.27-2.09a26.321,26.321,0,0,1,7.22-1.14m0-3.88a30.13,30.13,0,0,0-8.29,1.29l-7.27,2.09-3.73,1.07,1.07,3.73,31.32,109.06c3.53,12.27,11.47,14.85,17.5,14.85a28.138,28.138,0,0,0,7.71-1.19l7.61-2.19,3.74-1.07-1.07-3.73-15.21-53c-1.86-6.46-1.7-11.8.48-15.88a11.3,11.3,0,0,1,7.33-6.12,19.439,19.439,0,0,1,5.37-.82,12.59,12.59,0,0,1,6.22,1.55c3.66,2.11,6.45,6.35,8.24,12.58l10.94,38.08c3.53,12.3,11.43,14.89,17.44,14.89a27.912,27.912,0,0,0,7.59-1.17l7.62-2.19,3.73-1.07-1.07-3.74-15.71-54.7c-6.67-23.23-19.69-35-38.7-35a58.662,58.662,0,0,0-16.1,2.48,26,26,0,0,0-12.85,8.89c-.64.76-1.24,1.54-1.81,2.33l-4.86-16.94c-3.36-11.66-11.23-14.11-17.24-14.11Z" transform="translate(-181 -342.43)" fill="#c80001"/><path d="M806.58,452.74q-15.75,4.53-20.23-11.05l-10.94-38.08q-3.13-10.91-10.09-14.91-6.24-3.45-14.54-1.06a15.07,15.07,0,0,0-9.69,8q-4,7.53-.79,18.78l15.21,53-7.61,2.19q-15.93,4.57-20.4-11l-31.33-109,7.27-2.09q16.44-4.72,20.72,10.16l7.66,26.66a27.56,27.56,0,0,1,5.75-10.64,22.16,22.16,0,0,1,10.92-7.7q38.26-11,50,29.86l15.71,54.71Z" transform="translate(-181 -342.43)" fill="#f5fa16"/></g></svg>