<svg xmlns="http://www.w3.org/2000/svg" width="120.289" height="31.426" viewBox="0 0 120.289 31.426"><path d="M16.718-83.3a11.585,11.585,0,0,1-5.766-1.474,11,11,0,0,1-4.164-4.084,11.426,11.426,0,0,1-1.538-5.91,11.364,11.364,0,0,1,1.538-5.878,11,11,0,0,1,4.164-4.084,11.585,11.585,0,0,1,5.766-1.474,11.559,11.559,0,0,1,5.782,1.474,10.918,10.918,0,0,1,4.132,4.084,11.457,11.457,0,0,1,1.522,5.878,11.519,11.519,0,0,1-1.522,5.91,10.885,10.885,0,0,1-4.148,4.084A11.585,11.585,0,0,1,16.718-83.3Zm0-4a6.832,6.832,0,0,0,3.556-.913,6.259,6.259,0,0,0,2.4-2.611,8.567,8.567,0,0,0,.865-3.94,8.468,8.468,0,0,0-.865-3.924,6.174,6.174,0,0,0-2.4-2.579,6.927,6.927,0,0,0-3.556-.9,7.014,7.014,0,0,0-3.572.9,6.142,6.142,0,0,0-2.419,2.579,8.468,8.468,0,0,0-.865,3.924,8.567,8.567,0,0,0,.865,3.94,6.226,6.226,0,0,0,2.419,2.611A6.918,6.918,0,0,0,16.718-87.3ZM35.971-98.512a6.305,6.305,0,0,1,2.258-2.21,6.281,6.281,0,0,1,3.187-.8v4.709H40.231a4.543,4.543,0,0,0-3.187.993,4.578,4.578,0,0,0-1.073,3.46v8.841H31.486v-17.747h4.485Zm7.3,6.054a10.271,10.271,0,0,1,1.073-4.773,7.866,7.866,0,0,1,2.915-3.2,7.761,7.761,0,0,1,4.116-1.121,7.231,7.231,0,0,1,3.476.8,7.053,7.053,0,0,1,2.387,2.018v-2.531h4.517V-83.52H57.242v-2.595a6.671,6.671,0,0,1-2.387,2.066,7.3,7.3,0,0,1-3.508.817,7.542,7.542,0,0,1-4.084-1.153,8.071,8.071,0,0,1-2.915-3.251A10.442,10.442,0,0,1,43.275-92.457Zm13.967.064a5.753,5.753,0,0,0-.641-2.8,4.517,4.517,0,0,0-1.73-1.794,4.623,4.623,0,0,0-2.339-.625,4.542,4.542,0,0,0-2.306.609,4.583,4.583,0,0,0-1.714,1.778,5.569,5.569,0,0,0-.657,2.771,5.753,5.753,0,0,0,.657,2.8,4.728,4.728,0,0,0,1.73,1.842,4.394,4.394,0,0,0,2.29.641,4.623,4.623,0,0,0,2.339-.625A4.517,4.517,0,0,0,56.6-89.59,5.752,5.752,0,0,0,57.242-92.393Zm18.74-9.13a6.84,6.84,0,0,1,5.125,2,7.665,7.665,0,0,1,1.954,5.59V-83.52H78.576v-9.8a4.6,4.6,0,0,0-1.057-3.251,3.744,3.744,0,0,0-2.883-1.137,3.836,3.836,0,0,0-2.931,1.137,4.558,4.558,0,0,0-1.073,3.251v9.8H66.147v-17.747h4.485v2.21a6.2,6.2,0,0,1,2.29-1.81A7.086,7.086,0,0,1,75.982-101.523Zm18.292-.032a7.448,7.448,0,0,1,3.492.785,6.429,6.429,0,0,1,2.371,2.034v-2.531h4.517v17.875a9.521,9.521,0,0,1-.993,4.4,7.372,7.372,0,0,1-2.979,3.075,9.523,9.523,0,0,1-4.805,1.137,10.264,10.264,0,0,1-6.2-1.762,6.531,6.531,0,0,1-2.739-4.805H91.39A3.315,3.315,0,0,0,92.912-79.4a5.3,5.3,0,0,0,2.835.721,4.387,4.387,0,0,0,3.171-1.169,4.7,4.7,0,0,0,1.217-3.54v-2.755a6.813,6.813,0,0,1-2.387,2.082,7.12,7.12,0,0,1-3.476.833,7.622,7.622,0,0,1-4.1-1.153,8.03,8.03,0,0,1-2.931-3.251,10.442,10.442,0,0,1-1.073-4.821,10.271,10.271,0,0,1,1.073-4.773,7.865,7.865,0,0,1,2.915-3.2A7.761,7.761,0,0,1,94.273-101.555Zm5.862,9.162a5.753,5.753,0,0,0-.641-2.8,4.517,4.517,0,0,0-1.73-1.794,4.623,4.623,0,0,0-2.338-.625,4.542,4.542,0,0,0-2.306.609,4.583,4.583,0,0,0-1.714,1.778,5.569,5.569,0,0,0-.657,2.771,5.753,5.753,0,0,0,.657,2.8,4.728,4.728,0,0,0,1.73,1.842,4.394,4.394,0,0,0,2.29.641,4.623,4.623,0,0,0,2.338-.625,4.517,4.517,0,0,0,1.73-1.794A5.752,5.752,0,0,0,100.135-92.393Zm25.4-.384a10.585,10.585,0,0,1-.128,1.73H112.437a4.412,4.412,0,0,0,1.345,3.011,4.149,4.149,0,0,0,2.915,1.089,3.662,3.662,0,0,0,3.556-2.146h4.837a8.084,8.084,0,0,1-2.947,4.213,8.6,8.6,0,0,1-5.35,1.65,9.258,9.258,0,0,1-4.6-1.137,8,8,0,0,1-3.171-3.219,9.865,9.865,0,0,1-1.137-4.805,10.048,10.048,0,0,1,1.121-4.837,7.823,7.823,0,0,1,3.139-3.2,9.4,9.4,0,0,1,4.645-1.121,9.33,9.33,0,0,1,4.533,1.089,7.665,7.665,0,0,1,3.107,3.091A9.355,9.355,0,0,1,125.539-92.778Zm-4.645-1.281a3.557,3.557,0,0,0-1.249-2.771,4.426,4.426,0,0,0-2.979-1.041,4.071,4.071,0,0,0-2.8,1.009,4.437,4.437,0,0,0-1.393,2.8Z" transform="translate(-5.25 106.2)" fill="#ffa200"/></svg>